<svg width="284" height="243" viewBox="0 0 284 243" fill="none" xmlns="http://www.w3.org/2000/svg">
<path d="M15.2275 211.604H11.0508V216H9.73828V206.047H15.9043V207.127H11.0508V210.531H15.2275V211.604ZM21.6123 216C21.5394 215.854 21.4801 215.594 21.4346 215.221C20.8467 215.831 20.1449 216.137 19.3291 216.137C18.5999 216.137 18.0007 215.932 17.5312 215.521C17.0664 215.107 16.834 214.583 16.834 213.949C16.834 213.179 17.1257 212.582 17.709 212.158C18.2969 211.73 19.1217 211.516 20.1836 211.516H21.4141V210.935C21.4141 210.493 21.2819 210.142 21.0176 209.882C20.7533 209.618 20.3636 209.485 19.8486 209.485C19.3975 209.485 19.0192 209.599 18.7139 209.827C18.4085 210.055 18.2559 210.331 18.2559 210.654H16.9844C16.9844 210.285 17.1143 209.93 17.374 209.588C17.6383 209.242 17.9938 208.968 18.4404 208.768C18.8916 208.567 19.3861 208.467 19.9238 208.467C20.776 208.467 21.4437 208.681 21.9268 209.109C22.4098 209.533 22.6605 210.119 22.6787 210.866V214.271C22.6787 214.95 22.7653 215.49 22.9385 215.891V216H21.6123ZM19.5137 215.036C19.9102 215.036 20.2861 214.934 20.6416 214.729C20.9971 214.523 21.2546 214.257 21.4141 213.929V212.411H20.4229C18.8734 212.411 18.0986 212.865 18.0986 213.771C18.0986 214.168 18.2308 214.478 18.4951 214.701C18.7594 214.924 19.099 215.036 19.5137 215.036ZM27.6279 215.104C28.0791 215.104 28.4733 214.968 28.8105 214.694C29.1478 214.421 29.3346 214.079 29.3711 213.669H30.5674C30.5446 214.093 30.3988 214.496 30.1299 214.879C29.861 215.262 29.501 215.567 29.0498 215.795C28.6032 216.023 28.1292 216.137 27.6279 216.137C26.6208 216.137 25.8187 215.802 25.2217 215.132C24.6292 214.457 24.333 213.537 24.333 212.37V212.158C24.333 211.438 24.4652 210.798 24.7295 210.237C24.9938 209.677 25.3721 209.242 25.8643 208.932C26.361 208.622 26.9466 208.467 27.6211 208.467C28.4505 208.467 29.1387 208.715 29.6855 209.212C30.237 209.709 30.5309 210.354 30.5674 211.146H29.3711C29.3346 210.668 29.1523 210.276 28.8242 209.971C28.5007 209.661 28.0996 209.506 27.6211 209.506C26.9785 209.506 26.4795 209.738 26.124 210.203C25.7731 210.663 25.5977 211.331 25.5977 212.206V212.445C25.5977 213.298 25.7731 213.954 26.124 214.414C26.4749 214.874 26.9762 215.104 27.6279 215.104ZM27.833 216.062L27.751 216.417C28.4482 216.54 28.7969 216.934 28.7969 217.6C28.7969 218.042 28.6146 218.39 28.25 218.646C27.8854 218.905 27.3773 219.035 26.7256 219.035L26.6777 218.304C27.0378 218.304 27.3158 218.244 27.5117 218.126C27.7122 218.007 27.8125 217.841 27.8125 217.627C27.8125 217.426 27.7396 217.278 27.5938 217.183C27.4479 217.087 27.1517 217.019 26.7051 216.978L26.9238 216.062H27.833ZM36.5557 216C36.4827 215.854 36.4235 215.594 36.3779 215.221C35.79 215.831 35.0882 216.137 34.2725 216.137C33.5433 216.137 32.944 215.932 32.4746 215.521C32.0098 215.107 31.7773 214.583 31.7773 213.949C31.7773 213.179 32.069 212.582 32.6523 212.158C33.2402 211.73 34.0651 211.516 35.127 211.516H36.3574V210.935C36.3574 210.493 36.2253 210.142 35.9609 209.882C35.6966 209.618 35.307 209.485 34.792 209.485C34.3408 209.485 33.9626 209.599 33.6572 209.827C33.3519 210.055 33.1992 210.331 33.1992 210.654H31.9277C31.9277 210.285 32.0576 209.93 32.3174 209.588C32.5817 209.242 32.9372 208.968 33.3838 208.768C33.835 208.567 34.3294 208.467 34.8672 208.467C35.7194 208.467 36.387 208.681 36.8701 209.109C37.3532 209.533 37.6038 210.119 37.6221 210.866V214.271C37.6221 214.95 37.7087 215.49 37.8818 215.891V216H36.5557ZM34.457 215.036C34.8535 215.036 35.2295 214.934 35.585 214.729C35.9404 214.523 36.1979 214.257 36.3574 213.929V212.411H35.3662C33.8167 212.411 33.042 212.865 33.042 213.771C33.042 214.168 33.1742 214.478 33.4385 214.701C33.7028 214.924 34.0423 215.036 34.457 215.036ZM42.7422 212.233C42.7422 211.509 42.8835 210.857 43.166 210.278C43.4531 209.7 43.8496 209.253 44.3555 208.938C44.8659 208.624 45.4469 208.467 46.0986 208.467C47.1058 208.467 47.9193 208.815 48.5391 209.513C49.1634 210.21 49.4756 211.137 49.4756 212.295V212.384C49.4756 213.104 49.3366 213.751 49.0586 214.325C48.7852 214.895 48.391 215.339 47.876 215.658C47.3656 215.977 46.7777 216.137 46.1123 216.137C45.1097 216.137 44.2962 215.788 43.6719 215.091C43.0521 214.394 42.7422 213.471 42.7422 212.322V212.233ZM44.0137 212.384C44.0137 213.204 44.2028 213.863 44.5811 214.359C44.9639 214.856 45.4743 215.104 46.1123 215.104C46.7549 215.104 47.2653 214.854 47.6436 214.353C48.0218 213.847 48.2109 213.14 48.2109 212.233C48.2109 211.422 48.0173 210.766 47.6299 210.265C47.2471 209.759 46.7367 209.506 46.0986 209.506C45.4743 209.506 44.9707 209.754 44.5879 210.251C44.2051 210.748 44.0137 211.459 44.0137 212.384ZM58.8408 214.038C58.8408 213.696 58.7109 213.432 58.4512 213.245C58.196 213.054 57.7471 212.89 57.1045 212.753C56.4665 212.616 55.9583 212.452 55.5801 212.261C55.2064 212.069 54.9284 211.841 54.7461 211.577C54.5684 211.313 54.4795 210.998 54.4795 210.634C54.4795 210.028 54.7347 209.515 55.2451 209.096C55.7601 208.676 56.4163 208.467 57.2139 208.467C58.0524 208.467 58.7314 208.683 59.251 209.116C59.7751 209.549 60.0371 210.103 60.0371 210.777H58.7656C58.7656 210.431 58.6175 210.132 58.3213 209.882C58.0296 209.631 57.6605 209.506 57.2139 209.506C56.7536 209.506 56.3936 209.606 56.1338 209.807C55.874 210.007 55.7441 210.269 55.7441 210.593C55.7441 210.898 55.8649 211.128 56.1064 211.283C56.348 211.438 56.7832 211.586 57.4121 211.728C58.0456 211.869 58.5583 212.037 58.9502 212.233C59.3421 212.429 59.6315 212.666 59.8184 212.944C60.0098 213.218 60.1055 213.553 60.1055 213.949C60.1055 214.61 59.8411 215.141 59.3125 215.542C58.7839 215.938 58.098 216.137 57.2549 216.137C56.6624 216.137 56.1383 216.032 55.6826 215.822C55.2269 215.613 54.8691 215.321 54.6094 214.947C54.3542 214.569 54.2266 214.161 54.2266 213.724H55.4912C55.514 214.147 55.6826 214.485 55.9971 214.735C56.3161 214.981 56.7354 215.104 57.2549 215.104C57.7334 215.104 58.1162 215.009 58.4033 214.817C58.695 214.621 58.8408 214.362 58.8408 214.038ZM64.8223 216.137C63.8197 216.137 63.0039 215.809 62.375 215.152C61.7461 214.492 61.4316 213.61 61.4316 212.507V212.274C61.4316 211.541 61.5706 210.887 61.8486 210.312C62.1312 209.734 62.5231 209.283 63.0244 208.959C63.5303 208.631 64.0771 208.467 64.665 208.467C65.6266 208.467 66.374 208.784 66.9072 209.417C67.4404 210.05 67.707 210.957 67.707 212.138V212.664H62.6963C62.7145 213.393 62.9264 213.983 63.332 214.435C63.7422 214.881 64.2617 215.104 64.8906 215.104C65.3372 215.104 65.7155 215.013 66.0254 214.831C66.3353 214.649 66.6064 214.407 66.8389 214.106L67.6113 214.708C66.9915 215.66 66.0618 216.137 64.8223 216.137ZM64.665 209.506C64.1546 209.506 63.7262 209.693 63.3799 210.066C63.0335 210.436 62.8193 210.955 62.7373 211.625H66.4424V211.529C66.4059 210.887 66.2327 210.39 65.9229 210.039C65.613 209.684 65.1937 209.506 64.665 209.506ZM73.7432 215.269C73.251 215.847 72.5286 216.137 71.5762 216.137C70.7878 216.137 70.1862 215.909 69.7715 215.453C69.3613 214.993 69.154 214.314 69.1494 213.416V208.604H70.4141V213.382C70.4141 214.503 70.8698 215.063 71.7812 215.063C72.7474 215.063 73.39 214.703 73.709 213.983V208.604H74.9736V216H73.7705L73.7432 215.269ZM81.748 216H80.4834V205.5H81.748V216ZM83.4434 212.233C83.4434 211.509 83.5846 210.857 83.8672 210.278C84.1543 209.7 84.5508 209.253 85.0566 208.938C85.5671 208.624 86.1481 208.467 86.7998 208.467C87.807 208.467 88.6204 208.815 89.2402 209.513C89.8646 210.21 90.1768 211.137 90.1768 212.295V212.384C90.1768 213.104 90.0378 213.751 89.7598 214.325C89.4863 214.895 89.0921 215.339 88.5771 215.658C88.0667 215.977 87.4788 216.137 86.8135 216.137C85.8109 216.137 84.9974 215.788 84.373 215.091C83.7533 214.394 83.4434 213.471 83.4434 212.322V212.233ZM84.7148 212.384C84.7148 213.204 84.904 213.863 85.2822 214.359C85.665 214.856 86.1755 215.104 86.8135 215.104C87.4561 215.104 87.9665 214.854 88.3447 214.353C88.723 213.847 88.9121 213.14 88.9121 212.233C88.9121 211.422 88.7184 210.766 88.3311 210.265C87.9482 209.759 87.4378 209.506 86.7998 209.506C86.1755 209.506 85.6719 209.754 85.2891 210.251C84.9062 210.748 84.7148 211.459 84.7148 212.384ZM91.4619 212.24C91.4619 211.087 91.7285 210.171 92.2617 209.492C92.7949 208.809 93.5013 208.467 94.3809 208.467C95.2832 208.467 95.9873 208.786 96.4932 209.424L96.5547 208.604H97.71V215.822C97.71 216.779 97.4251 217.534 96.8555 218.085C96.2904 218.636 95.5293 218.912 94.5723 218.912C94.0391 218.912 93.5173 218.798 93.0068 218.57C92.4964 218.342 92.1068 218.03 91.8379 217.634L92.4941 216.875C93.0365 217.545 93.6995 217.88 94.4834 217.88C95.0986 217.88 95.5771 217.707 95.9189 217.36C96.2653 217.014 96.4385 216.526 96.4385 215.897V215.262C95.9326 215.845 95.2422 216.137 94.3672 216.137C93.5013 216.137 92.7995 215.788 92.2617 215.091C91.7285 214.394 91.4619 213.443 91.4619 212.24ZM92.7334 212.384C92.7334 213.218 92.9043 213.874 93.2461 214.353C93.5879 214.826 94.0664 215.063 94.6816 215.063C95.4792 215.063 96.0648 214.701 96.4385 213.977V210.6C96.0511 209.893 95.4701 209.54 94.6953 209.54C94.0801 209.54 93.5993 209.779 93.2529 210.258C92.9066 210.736 92.7334 211.445 92.7334 212.384ZM100.998 216H99.7334V208.604H100.998V216ZM99.6309 206.642C99.6309 206.437 99.6924 206.263 99.8154 206.122C99.943 205.981 100.13 205.91 100.376 205.91C100.622 205.91 100.809 205.981 100.937 206.122C101.064 206.263 101.128 206.437 101.128 206.642C101.128 206.847 101.064 207.018 100.937 207.154C100.809 207.291 100.622 207.359 100.376 207.359C100.13 207.359 99.943 207.291 99.8154 207.154C99.6924 207.018 99.6309 206.847 99.6309 206.642ZM104.225 208.604L104.266 209.533C104.831 208.822 105.569 208.467 106.48 208.467C108.044 208.467 108.832 209.349 108.846 211.112V216H107.581V211.105C107.576 210.572 107.453 210.178 107.212 209.923C106.975 209.668 106.604 209.54 106.098 209.54C105.688 209.54 105.327 209.649 105.018 209.868C104.708 210.087 104.466 210.374 104.293 210.729V216H103.028V208.604H104.225ZM117.295 216.137C116.292 216.137 115.477 215.809 114.848 215.152C114.219 214.492 113.904 213.61 113.904 212.507V212.274C113.904 211.541 114.043 210.887 114.321 210.312C114.604 209.734 114.996 209.283 115.497 208.959C116.003 208.631 116.55 208.467 117.138 208.467C118.099 208.467 118.847 208.784 119.38 209.417C119.913 210.05 120.18 210.957 120.18 212.138V212.664H115.169C115.187 213.393 115.399 213.983 115.805 214.435C116.215 214.881 116.734 215.104 117.363 215.104C117.81 215.104 118.188 215.013 118.498 214.831C118.808 214.649 119.079 214.407 119.312 214.106L120.084 214.708C119.464 215.66 118.535 216.137 117.295 216.137ZM117.138 209.506C116.627 209.506 116.199 209.693 115.853 210.066C115.506 210.436 115.292 210.955 115.21 211.625H118.915V211.529C118.879 210.887 118.705 210.39 118.396 210.039C118.086 209.684 117.666 209.506 117.138 209.506ZM129.429 214.038C129.429 213.696 129.299 213.432 129.039 213.245C128.784 213.054 128.335 212.89 127.692 212.753C127.054 212.616 126.546 212.452 126.168 212.261C125.794 212.069 125.516 211.841 125.334 211.577C125.156 211.313 125.067 210.998 125.067 210.634C125.067 210.028 125.323 209.515 125.833 209.096C126.348 208.676 127.004 208.467 127.802 208.467C128.64 208.467 129.319 208.683 129.839 209.116C130.363 209.549 130.625 210.103 130.625 210.777H129.354C129.354 210.431 129.205 210.132 128.909 209.882C128.618 209.631 128.248 209.506 127.802 209.506C127.341 209.506 126.981 209.606 126.722 209.807C126.462 210.007 126.332 210.269 126.332 210.593C126.332 210.898 126.453 211.128 126.694 211.283C126.936 211.438 127.371 211.586 128 211.728C128.633 211.869 129.146 212.037 129.538 212.233C129.93 212.429 130.219 212.666 130.406 212.944C130.598 213.218 130.693 213.553 130.693 213.949C130.693 214.61 130.429 215.141 129.9 215.542C129.372 215.938 128.686 216.137 127.843 216.137C127.25 216.137 126.726 216.032 126.271 215.822C125.815 215.613 125.457 215.321 125.197 214.947C124.942 214.569 124.814 214.161 124.814 213.724H126.079C126.102 214.147 126.271 214.485 126.585 214.735C126.904 214.981 127.323 215.104 127.843 215.104C128.321 215.104 128.704 215.009 128.991 214.817C129.283 214.621 129.429 214.362 129.429 214.038ZM135.41 216.137C134.408 216.137 133.592 215.809 132.963 215.152C132.334 214.492 132.02 213.61 132.02 212.507V212.274C132.02 211.541 132.159 210.887 132.437 210.312C132.719 209.734 133.111 209.283 133.612 208.959C134.118 208.631 134.665 208.467 135.253 208.467C136.215 208.467 136.962 208.784 137.495 209.417C138.028 210.05 138.295 210.957 138.295 212.138V212.664H133.284C133.302 213.393 133.514 213.983 133.92 214.435C134.33 214.881 134.85 215.104 135.479 215.104C135.925 215.104 136.303 215.013 136.613 214.831C136.923 214.649 137.194 214.407 137.427 214.106L138.199 214.708C137.579 215.66 136.65 216.137 135.41 216.137ZM135.253 209.506C134.743 209.506 134.314 209.693 133.968 210.066C133.621 210.436 133.407 210.955 133.325 211.625H137.03V211.529C136.994 210.887 136.821 210.39 136.511 210.039C136.201 209.684 135.782 209.506 135.253 209.506ZM141.07 208.604V216.854C141.07 218.276 140.425 218.987 139.136 218.987C138.858 218.987 138.6 218.946 138.363 218.864V217.853C138.509 217.889 138.701 217.907 138.938 217.907C139.22 217.907 139.434 217.83 139.58 217.675C139.73 217.524 139.806 217.26 139.806 216.882V208.604H141.07ZM139.676 206.642C139.676 206.441 139.737 206.27 139.86 206.129C139.988 205.983 140.173 205.91 140.414 205.91C140.66 205.91 140.847 205.981 140.975 206.122C141.102 206.263 141.166 206.437 141.166 206.642C141.166 206.847 141.102 207.018 140.975 207.154C140.847 207.291 140.66 207.359 140.414 207.359C140.168 207.359 139.983 207.291 139.86 207.154C139.737 207.018 139.676 206.847 139.676 206.642ZM147.681 216C147.608 215.854 147.549 215.594 147.503 215.221C146.915 215.831 146.213 216.137 145.397 216.137C144.668 216.137 144.069 215.932 143.6 215.521C143.135 215.107 142.902 214.583 142.902 213.949C142.902 213.179 143.194 212.582 143.777 212.158C144.365 211.73 145.19 211.516 146.252 211.516H147.482V210.935C147.482 210.493 147.35 210.142 147.086 209.882C146.822 209.618 146.432 209.485 145.917 209.485C145.466 209.485 145.088 209.599 144.782 209.827C144.477 210.055 144.324 210.331 144.324 210.654H143.053C143.053 210.285 143.183 209.93 143.442 209.588C143.707 209.242 144.062 208.968 144.509 208.768C144.96 208.567 145.454 208.467 145.992 208.467C146.844 208.467 147.512 208.681 147.995 209.109C148.478 209.533 148.729 210.119 148.747 210.866V214.271C148.747 214.95 148.834 215.49 149.007 215.891V216H147.681ZM145.582 215.036C145.979 215.036 146.354 214.934 146.71 214.729C147.065 214.523 147.323 214.257 147.482 213.929V212.411H146.491C144.942 212.411 144.167 212.865 144.167 213.771C144.167 214.168 144.299 214.478 144.563 214.701C144.828 214.924 145.167 215.036 145.582 215.036ZM158.769 216C158.696 215.854 158.636 215.594 158.591 215.221C158.003 215.831 157.301 216.137 156.485 216.137C155.756 216.137 155.157 215.932 154.688 215.521C154.223 215.107 153.99 214.583 153.99 213.949C153.99 213.179 154.282 212.582 154.865 212.158C155.453 211.73 156.278 211.516 157.34 211.516H158.57V210.935C158.57 210.493 158.438 210.142 158.174 209.882C157.91 209.618 157.52 209.485 157.005 209.485C156.554 209.485 156.175 209.599 155.87 209.827C155.565 210.055 155.412 210.331 155.412 210.654H154.141C154.141 210.285 154.271 209.93 154.53 209.588C154.795 209.242 155.15 208.968 155.597 208.768C156.048 208.567 156.542 208.467 157.08 208.467C157.932 208.467 158.6 208.681 159.083 209.109C159.566 209.533 159.817 210.119 159.835 210.866V214.271C159.835 214.95 159.922 215.49 160.095 215.891V216H158.769ZM156.67 215.036C157.066 215.036 157.442 214.934 157.798 214.729C158.153 214.523 158.411 214.257 158.57 213.929V212.411H157.579C156.03 212.411 155.255 212.865 155.255 213.771C155.255 214.168 155.387 214.478 155.651 214.701C155.916 214.924 156.255 215.036 156.67 215.036ZM171.538 212.384C171.538 213.509 171.281 214.416 170.766 215.104C170.251 215.793 169.553 216.137 168.674 216.137C167.776 216.137 167.07 215.852 166.555 215.282V218.844H165.29V208.604H166.445L166.507 209.424C167.022 208.786 167.737 208.467 168.653 208.467C169.542 208.467 170.244 208.802 170.759 209.472C171.278 210.142 171.538 211.074 171.538 212.268V212.384ZM170.273 212.24C170.273 211.406 170.096 210.748 169.74 210.265C169.385 209.782 168.897 209.54 168.277 209.54C167.512 209.54 166.938 209.88 166.555 210.559V214.093C166.933 214.767 167.512 215.104 168.291 215.104C168.897 215.104 169.378 214.865 169.733 214.387C170.093 213.904 170.273 213.188 170.273 212.24ZM176.727 209.738C176.535 209.706 176.328 209.69 176.104 209.69C175.275 209.69 174.712 210.044 174.416 210.75V216H173.151V208.604H174.382L174.402 209.458C174.817 208.797 175.405 208.467 176.166 208.467C176.412 208.467 176.599 208.499 176.727 208.562V209.738ZM179.27 216H178.005V208.604H179.27V216ZM177.902 206.642C177.902 206.437 177.964 206.263 178.087 206.122C178.215 205.981 178.401 205.91 178.647 205.91C178.894 205.91 179.08 205.981 179.208 206.122C179.336 206.263 179.399 206.437 179.399 206.642C179.399 206.847 179.336 207.018 179.208 207.154C179.08 207.291 178.894 207.359 178.647 207.359C178.401 207.359 178.215 207.291 178.087 207.154C177.964 207.018 177.902 206.847 177.902 206.642ZM182.489 208.604L182.523 209.424C183.066 208.786 183.797 208.467 184.718 208.467C185.752 208.467 186.456 208.863 186.83 209.656C187.076 209.301 187.395 209.014 187.787 208.795C188.184 208.576 188.651 208.467 189.188 208.467C190.811 208.467 191.636 209.326 191.663 211.044V216H190.398V211.119C190.398 210.59 190.278 210.196 190.036 209.937C189.795 209.672 189.389 209.54 188.819 209.54C188.35 209.54 187.96 209.681 187.65 209.964C187.34 210.242 187.16 210.618 187.11 211.092V216H185.839V211.153C185.839 210.078 185.312 209.54 184.26 209.54C183.43 209.54 182.863 209.893 182.558 210.6V216H181.293V208.604H182.489ZM196.646 216.137C195.644 216.137 194.828 215.809 194.199 215.152C193.57 214.492 193.256 213.61 193.256 212.507V212.274C193.256 211.541 193.395 210.887 193.673 210.312C193.955 209.734 194.347 209.283 194.849 208.959C195.354 208.631 195.901 208.467 196.489 208.467C197.451 208.467 198.198 208.784 198.731 209.417C199.265 210.05 199.531 210.957 199.531 212.138V212.664H194.521C194.539 213.393 194.751 213.983 195.156 214.435C195.566 214.881 196.086 215.104 196.715 215.104C197.161 215.104 197.54 215.013 197.85 214.831C198.16 214.649 198.431 214.407 198.663 214.106L199.436 214.708C198.816 215.66 197.886 216.137 196.646 216.137ZM196.489 209.506C195.979 209.506 195.55 209.693 195.204 210.066C194.858 210.436 194.644 210.955 194.562 211.625H198.267V211.529C198.23 210.887 198.057 210.39 197.747 210.039C197.437 209.684 197.018 209.506 196.489 209.506ZM202.375 216H201.11V208.604H202.375V216ZM201.008 206.642C201.008 206.437 201.069 206.263 201.192 206.122C201.32 205.981 201.507 205.91 201.753 205.91C201.999 205.91 202.186 205.981 202.313 206.122C202.441 206.263 202.505 206.437 202.505 206.642C202.505 206.847 202.441 207.018 202.313 207.154C202.186 207.291 201.999 207.359 201.753 207.359C201.507 207.359 201.32 207.291 201.192 207.154C201.069 207.018 201.008 206.847 201.008 206.642ZM207.98 209.738C207.789 209.706 207.582 209.69 207.358 209.69C206.529 209.69 205.966 210.044 205.67 210.75V216H204.405V208.604H205.636L205.656 209.458C206.071 208.797 206.659 208.467 207.42 208.467C207.666 208.467 207.853 208.499 207.98 208.562V209.738ZM213.442 216C213.369 215.854 213.31 215.594 213.265 215.221C212.677 215.831 211.975 216.137 211.159 216.137C210.43 216.137 209.831 215.932 209.361 215.521C208.896 215.107 208.664 214.583 208.664 213.949C208.664 213.179 208.956 212.582 209.539 212.158C210.127 211.73 210.952 211.516 212.014 211.516H213.244V210.935C213.244 210.493 213.112 210.142 212.848 209.882C212.583 209.618 212.194 209.485 211.679 209.485C211.228 209.485 210.849 209.599 210.544 209.827C210.239 210.055 210.086 210.331 210.086 210.654H208.814C208.814 210.285 208.944 209.93 209.204 209.588C209.468 209.242 209.824 208.968 210.271 208.768C210.722 208.567 211.216 208.467 211.754 208.467C212.606 208.467 213.274 208.681 213.757 209.109C214.24 209.533 214.491 210.119 214.509 210.866V214.271C214.509 214.95 214.595 215.49 214.769 215.891V216H213.442ZM211.344 215.036C211.74 215.036 212.116 214.934 212.472 214.729C212.827 214.523 213.085 214.257 213.244 213.929V212.411H212.253C210.703 212.411 209.929 212.865 209.929 213.771C209.929 214.168 210.061 214.478 210.325 214.701C210.59 214.924 210.929 215.036 211.344 215.036ZM226.212 212.384C226.212 213.509 225.954 214.416 225.439 215.104C224.924 215.793 224.227 216.137 223.348 216.137C222.45 216.137 221.743 215.852 221.229 215.282V218.844H219.964V208.604H221.119L221.181 209.424C221.696 208.786 222.411 208.467 223.327 208.467C224.216 208.467 224.918 208.802 225.433 209.472C225.952 210.142 226.212 211.074 226.212 212.268V212.384ZM224.947 212.24C224.947 211.406 224.77 210.748 224.414 210.265C224.059 209.782 223.571 209.54 222.951 209.54C222.186 209.54 221.611 209.88 221.229 210.559V214.093C221.607 214.767 222.186 215.104 222.965 215.104C223.571 215.104 224.052 214.865 224.407 214.387C224.767 213.904 224.947 213.188 224.947 212.24ZM230.895 216.137C229.892 216.137 229.076 215.809 228.447 215.152C227.818 214.492 227.504 213.61 227.504 212.507V212.274C227.504 211.541 227.643 210.887 227.921 210.312C228.203 209.734 228.595 209.283 229.097 208.959C229.603 208.631 230.149 208.467 230.737 208.467C231.699 208.467 232.446 208.784 232.979 209.417C233.513 210.05 233.779 210.957 233.779 212.138V212.664H228.769C228.787 213.393 228.999 213.983 229.404 214.435C229.814 214.881 230.334 215.104 230.963 215.104C231.41 215.104 231.788 215.013 232.098 214.831C232.408 214.649 232.679 214.407 232.911 214.106L233.684 214.708C233.064 215.66 232.134 216.137 230.895 216.137ZM230.737 209.506C230.227 209.506 229.799 209.693 229.452 210.066C229.106 210.436 228.892 210.955 228.81 211.625H232.515V211.529C232.478 210.887 232.305 210.39 231.995 210.039C231.685 209.684 231.266 209.506 230.737 209.506ZM239.556 214.038C239.556 213.696 239.426 213.432 239.166 213.245C238.911 213.054 238.462 212.89 237.819 212.753C237.181 212.616 236.673 212.452 236.295 212.261C235.921 212.069 235.643 211.841 235.461 211.577C235.283 211.313 235.194 210.998 235.194 210.634C235.194 210.028 235.45 209.515 235.96 209.096C236.475 208.676 237.131 208.467 237.929 208.467C238.767 208.467 239.446 208.683 239.966 209.116C240.49 209.549 240.752 210.103 240.752 210.777H239.48C239.48 210.431 239.332 210.132 239.036 209.882C238.744 209.631 238.375 209.506 237.929 209.506C237.468 209.506 237.108 209.606 236.849 209.807C236.589 210.007 236.459 210.269 236.459 210.593C236.459 210.898 236.58 211.128 236.821 211.283C237.063 211.438 237.498 211.586 238.127 211.728C238.76 211.869 239.273 212.037 239.665 212.233C240.057 212.429 240.346 212.666 240.533 212.944C240.725 213.218 240.82 213.553 240.82 213.949C240.82 214.61 240.556 215.141 240.027 215.542C239.499 215.938 238.813 216.137 237.97 216.137C237.377 216.137 236.853 216.032 236.397 215.822C235.942 215.613 235.584 215.321 235.324 214.947C235.069 214.569 234.941 214.161 234.941 213.724H236.206C236.229 214.147 236.397 214.485 236.712 214.735C237.031 214.981 237.45 215.104 237.97 215.104C238.448 215.104 238.831 215.009 239.118 214.817C239.41 214.621 239.556 214.362 239.556 214.038ZM246.774 214.038C246.774 213.696 246.645 213.432 246.385 213.245C246.13 213.054 245.681 212.89 245.038 212.753C244.4 212.616 243.892 212.452 243.514 212.261C243.14 212.069 242.862 211.841 242.68 211.577C242.502 211.313 242.413 210.998 242.413 210.634C242.413 210.028 242.668 209.515 243.179 209.096C243.694 208.676 244.35 208.467 245.147 208.467C245.986 208.467 246.665 208.683 247.185 209.116C247.709 209.549 247.971 210.103 247.971 210.777H246.699C246.699 210.431 246.551 210.132 246.255 209.882C245.963 209.631 245.594 209.506 245.147 209.506C244.687 209.506 244.327 209.606 244.067 209.807C243.808 210.007 243.678 210.269 243.678 210.593C243.678 210.898 243.799 211.128 244.04 211.283C244.282 211.438 244.717 211.586 245.346 211.728C245.979 211.869 246.492 212.037 246.884 212.233C247.276 212.429 247.565 212.666 247.752 212.944C247.943 213.218 248.039 213.553 248.039 213.949C248.039 214.61 247.775 215.141 247.246 215.542C246.717 215.938 246.032 216.137 245.188 216.137C244.596 216.137 244.072 216.032 243.616 215.822C243.16 215.613 242.803 215.321 242.543 214.947C242.288 214.569 242.16 214.161 242.16 213.724H243.425C243.448 214.147 243.616 214.485 243.931 214.735C244.25 214.981 244.669 215.104 245.188 215.104C245.667 215.104 246.05 215.009 246.337 214.817C246.629 214.621 246.774 214.362 246.774 214.038ZM249.352 212.233C249.352 211.509 249.493 210.857 249.775 210.278C250.062 209.7 250.459 209.253 250.965 208.938C251.475 208.624 252.056 208.467 252.708 208.467C253.715 208.467 254.529 208.815 255.148 209.513C255.773 210.21 256.085 211.137 256.085 212.295V212.384C256.085 213.104 255.946 213.751 255.668 214.325C255.395 214.895 255 215.339 254.485 215.658C253.975 215.977 253.387 216.137 252.722 216.137C251.719 216.137 250.906 215.788 250.281 215.091C249.661 214.394 249.352 213.471 249.352 212.322V212.233ZM250.623 212.384C250.623 213.204 250.812 213.863 251.19 214.359C251.573 214.856 252.084 215.104 252.722 215.104C253.364 215.104 253.875 214.854 254.253 214.353C254.631 213.847 254.82 213.14 254.82 212.233C254.82 211.422 254.627 210.766 254.239 210.265C253.856 209.759 253.346 209.506 252.708 209.506C252.084 209.506 251.58 209.754 251.197 210.251C250.814 210.748 250.623 211.459 250.623 212.384ZM262.237 216C262.164 215.854 262.105 215.594 262.06 215.221C261.472 215.831 260.77 216.137 259.954 216.137C259.225 216.137 258.626 215.932 258.156 215.521C257.691 215.107 257.459 214.583 257.459 213.949C257.459 213.179 257.751 212.582 258.334 212.158C258.922 211.73 259.747 211.516 260.809 211.516H262.039V210.935C262.039 210.493 261.907 210.142 261.643 209.882C261.378 209.618 260.989 209.485 260.474 209.485C260.022 209.485 259.644 209.599 259.339 209.827C259.034 210.055 258.881 210.331 258.881 210.654H257.609C257.609 210.285 257.739 209.93 257.999 209.588C258.263 209.242 258.619 208.968 259.065 208.768C259.517 208.567 260.011 208.467 260.549 208.467C261.401 208.467 262.069 208.681 262.552 209.109C263.035 209.533 263.285 210.119 263.304 210.866V214.271C263.304 214.95 263.39 215.49 263.563 215.891V216H262.237ZM260.139 215.036C260.535 215.036 260.911 214.934 261.267 214.729C261.622 214.523 261.88 214.257 262.039 213.929V212.411H261.048C259.498 212.411 258.724 212.865 258.724 213.771C258.724 214.168 258.856 214.478 259.12 214.701C259.384 214.924 259.724 215.036 260.139 215.036ZM273.325 216C273.252 215.854 273.193 215.594 273.147 215.221C272.56 215.831 271.858 216.137 271.042 216.137C270.313 216.137 269.714 215.932 269.244 215.521C268.779 215.107 268.547 214.583 268.547 213.949C268.547 213.179 268.839 212.582 269.422 212.158C270.01 211.73 270.835 211.516 271.896 211.516H273.127V210.935C273.127 210.493 272.995 210.142 272.73 209.882C272.466 209.618 272.076 209.485 271.562 209.485C271.11 209.485 270.732 209.599 270.427 209.827C270.121 210.055 269.969 210.331 269.969 210.654H268.697C268.697 210.285 268.827 209.93 269.087 209.588C269.351 209.242 269.707 208.968 270.153 208.768C270.604 208.567 271.099 208.467 271.637 208.467C272.489 208.467 273.157 208.681 273.64 209.109C274.123 209.533 274.373 210.119 274.392 210.866V214.271C274.392 214.95 274.478 215.49 274.651 215.891V216H273.325ZM271.227 215.036C271.623 215.036 271.999 214.934 272.354 214.729C272.71 214.523 272.967 214.257 273.127 213.929V212.411H272.136C270.586 212.411 269.812 212.865 269.812 213.771C269.812 214.168 269.944 214.478 270.208 214.701C270.472 214.924 270.812 215.036 271.227 215.036ZM81.0508 237V230.581H79.8818V229.604H81.0508V228.845C81.0508 228.052 81.2627 227.439 81.6865 227.006C82.1104 226.573 82.7096 226.356 83.4844 226.356C83.776 226.356 84.0654 226.395 84.3525 226.473L84.2842 227.498C84.07 227.457 83.8421 227.437 83.6006 227.437C83.1904 227.437 82.8737 227.557 82.6504 227.799C82.4271 228.036 82.3154 228.378 82.3154 228.824V229.604H83.8945V230.581H82.3154V237H81.0508ZM89.8623 237C89.7894 236.854 89.7301 236.594 89.6846 236.221C89.0967 236.831 88.3949 237.137 87.5791 237.137C86.8499 237.137 86.2507 236.932 85.7812 236.521C85.3164 236.107 85.084 235.583 85.084 234.949C85.084 234.179 85.3757 233.582 85.959 233.158C86.5469 232.73 87.3717 232.516 88.4336 232.516H89.6641V231.935C89.6641 231.493 89.5319 231.142 89.2676 230.882C89.0033 230.618 88.6136 230.485 88.0986 230.485C87.6475 230.485 87.2692 230.599 86.9639 230.827C86.6585 231.055 86.5059 231.331 86.5059 231.654H85.2344C85.2344 231.285 85.3643 230.93 85.624 230.588C85.8883 230.242 86.2438 229.968 86.6904 229.768C87.1416 229.567 87.6361 229.467 88.1738 229.467C89.026 229.467 89.6937 229.681 90.1768 230.109C90.6598 230.533 90.9105 231.119 90.9287 231.866V235.271C90.9287 235.95 91.0153 236.49 91.1885 236.891V237H89.8623ZM87.7637 236.036C88.1602 236.036 88.5361 235.934 88.8916 235.729C89.2471 235.523 89.5046 235.257 89.6641 234.929V233.411H88.6729C87.1234 233.411 86.3486 233.865 86.3486 234.771C86.3486 235.168 86.4808 235.478 86.7451 235.701C87.0094 235.924 87.349 236.036 87.7637 236.036ZM94.1006 235.968H98.4277V237H92.5557V236.07L96.6367 230.649H92.6172V229.604H98.2227V230.499L94.1006 235.968ZM102.816 237.137C101.814 237.137 100.998 236.809 100.369 236.152C99.7402 235.492 99.4258 234.61 99.4258 233.507V233.274C99.4258 232.541 99.5648 231.887 99.8428 231.312C100.125 230.734 100.517 230.283 101.019 229.959C101.524 229.631 102.071 229.467 102.659 229.467C103.621 229.467 104.368 229.784 104.901 230.417C105.435 231.05 105.701 231.957 105.701 233.138V233.664H100.69C100.709 234.393 100.921 234.983 101.326 235.435C101.736 235.881 102.256 236.104 102.885 236.104C103.331 236.104 103.71 236.013 104.02 235.831C104.329 235.649 104.601 235.407 104.833 235.106L105.605 235.708C104.986 236.66 104.056 237.137 102.816 237.137ZM102.659 230.506C102.149 230.506 101.72 230.693 101.374 231.066C101.028 231.436 100.813 231.955 100.731 232.625H104.437V232.529C104.4 231.887 104.227 231.39 103.917 231.039C103.607 230.684 103.188 230.506 102.659 230.506ZM110.746 230.738C110.555 230.706 110.347 230.69 110.124 230.69C109.295 230.69 108.732 231.044 108.436 231.75V237H107.171V229.604H108.401L108.422 230.458C108.837 229.797 109.424 229.467 110.186 229.467C110.432 229.467 110.618 229.499 110.746 229.562V230.738ZM119.954 236.269C119.462 236.847 118.74 237.137 117.787 237.137C116.999 237.137 116.397 236.909 115.982 236.453C115.572 235.993 115.365 235.314 115.36 234.416V229.604H116.625V234.382C116.625 235.503 117.081 236.063 117.992 236.063C118.958 236.063 119.601 235.703 119.92 234.983V229.604H121.185V237H119.981L119.954 236.269ZM124.302 229.604L124.336 230.424C124.878 229.786 125.61 229.467 126.53 229.467C127.565 229.467 128.269 229.863 128.643 230.656C128.889 230.301 129.208 230.014 129.6 229.795C129.996 229.576 130.463 229.467 131.001 229.467C132.623 229.467 133.448 230.326 133.476 232.044V237H132.211V232.119C132.211 231.59 132.09 231.196 131.849 230.937C131.607 230.672 131.201 230.54 130.632 230.54C130.162 230.54 129.773 230.681 129.463 230.964C129.153 231.242 128.973 231.618 128.923 232.092V237H127.651V232.153C127.651 231.078 127.125 230.54 126.072 230.54C125.243 230.54 124.675 230.893 124.37 231.6V237H123.105V229.604H124.302ZM139.956 237C139.883 236.854 139.824 236.594 139.778 236.221C139.19 236.831 138.489 237.137 137.673 237.137C136.944 237.137 136.344 236.932 135.875 236.521C135.41 236.107 135.178 235.583 135.178 234.949C135.178 234.179 135.469 233.582 136.053 233.158C136.641 232.73 137.465 232.516 138.527 232.516H139.758V231.935C139.758 231.493 139.626 231.142 139.361 230.882C139.097 230.618 138.707 230.485 138.192 230.485C137.741 230.485 137.363 230.599 137.058 230.827C136.752 231.055 136.6 231.331 136.6 231.654H135.328C135.328 231.285 135.458 230.93 135.718 230.588C135.982 230.242 136.338 229.968 136.784 229.768C137.235 229.567 137.73 229.467 138.268 229.467C139.12 229.467 139.787 229.681 140.271 230.109C140.754 230.533 141.004 231.119 141.022 231.866V235.271C141.022 235.95 141.109 236.49 141.282 236.891V237H139.956ZM137.857 236.036C138.254 236.036 138.63 235.934 138.985 235.729C139.341 235.523 139.598 235.257 139.758 234.929V233.411H138.767C137.217 233.411 136.442 233.865 136.442 234.771C136.442 235.168 136.575 235.478 136.839 235.701C137.103 235.924 137.443 236.036 137.857 236.036ZM152.726 233.384C152.726 234.509 152.468 235.416 151.953 236.104C151.438 236.793 150.741 237.137 149.861 237.137C148.964 237.137 148.257 236.852 147.742 236.282V239.844H146.478V229.604H147.633L147.694 230.424C148.209 229.786 148.925 229.467 149.841 229.467C150.729 229.467 151.431 229.802 151.946 230.472C152.466 231.142 152.726 232.074 152.726 233.268V233.384ZM151.461 233.24C151.461 232.406 151.283 231.748 150.928 231.265C150.572 230.782 150.085 230.54 149.465 230.54C148.699 230.54 148.125 230.88 147.742 231.559V235.093C148.12 235.767 148.699 236.104 149.479 236.104C150.085 236.104 150.565 235.865 150.921 235.387C151.281 234.904 151.461 234.188 151.461 233.24ZM157.408 237.137C156.406 237.137 155.59 236.809 154.961 236.152C154.332 235.492 154.018 234.61 154.018 233.507V233.274C154.018 232.541 154.157 231.887 154.435 231.312C154.717 230.734 155.109 230.283 155.61 229.959C156.116 229.631 156.663 229.467 157.251 229.467C158.213 229.467 158.96 229.784 159.493 230.417C160.026 231.05 160.293 231.957 160.293 233.138V233.664H155.282C155.3 234.393 155.512 234.983 155.918 235.435C156.328 235.881 156.848 236.104 157.477 236.104C157.923 236.104 158.301 236.013 158.611 235.831C158.921 235.649 159.192 235.407 159.425 235.106L160.197 235.708C159.577 236.66 158.648 237.137 157.408 237.137ZM157.251 230.506C156.741 230.506 156.312 230.693 155.966 231.066C155.619 231.436 155.405 231.955 155.323 232.625H159.028V232.529C158.992 231.887 158.819 231.39 158.509 231.039C158.199 230.684 157.78 230.506 157.251 230.506ZM165.338 230.738C165.146 230.706 164.939 230.69 164.716 230.69C163.886 230.69 163.324 231.044 163.027 231.75V237H161.763V229.604H162.993L163.014 230.458C163.428 229.797 164.016 229.467 164.777 229.467C165.023 229.467 165.21 229.499 165.338 229.562V230.738ZM166.069 233.24C166.069 232.087 166.336 231.171 166.869 230.492C167.402 229.809 168.109 229.467 168.988 229.467C169.891 229.467 170.595 229.786 171.101 230.424L171.162 229.604H172.317V236.822C172.317 237.779 172.033 238.534 171.463 239.085C170.898 239.636 170.137 239.912 169.18 239.912C168.646 239.912 168.125 239.798 167.614 239.57C167.104 239.342 166.714 239.03 166.445 238.634L167.102 237.875C167.644 238.545 168.307 238.88 169.091 238.88C169.706 238.88 170.185 238.707 170.526 238.36C170.873 238.014 171.046 237.526 171.046 236.897V236.262C170.54 236.845 169.85 237.137 168.975 237.137C168.109 237.137 167.407 236.788 166.869 236.091C166.336 235.394 166.069 234.443 166.069 233.24ZM167.341 233.384C167.341 234.218 167.512 234.874 167.854 235.353C168.195 235.826 168.674 236.063 169.289 236.063C170.087 236.063 170.672 235.701 171.046 234.977V231.6C170.659 230.893 170.077 230.54 169.303 230.54C168.688 230.54 168.207 230.779 167.86 231.258C167.514 231.736 167.341 232.445 167.341 233.384ZM178.798 236.269C178.306 236.847 177.583 237.137 176.631 237.137C175.842 237.137 175.241 236.909 174.826 236.453C174.416 235.993 174.209 235.314 174.204 234.416V229.604H175.469V234.382C175.469 235.503 175.924 236.063 176.836 236.063C177.802 236.063 178.445 235.703 178.764 234.983V229.604H180.028V237H178.825L178.798 236.269ZM183.152 229.604L183.193 230.533C183.758 229.822 184.497 229.467 185.408 229.467C186.971 229.467 187.76 230.349 187.773 232.112V237H186.509V232.105C186.504 231.572 186.381 231.178 186.14 230.923C185.903 230.668 185.531 230.54 185.025 230.54C184.615 230.54 184.255 230.649 183.945 230.868C183.635 231.087 183.394 231.374 183.221 231.729V237H181.956V229.604H183.152ZM191.396 227.812V229.604H192.777V230.581H191.396V235.168C191.396 235.464 191.458 235.688 191.581 235.838C191.704 235.984 191.914 236.057 192.21 236.057C192.356 236.057 192.556 236.029 192.812 235.975V237C192.479 237.091 192.155 237.137 191.841 237.137C191.276 237.137 190.85 236.966 190.562 236.624C190.275 236.282 190.132 235.797 190.132 235.168V230.581H188.785V229.604H190.132V227.812H191.396ZM198.827 237C198.754 236.854 198.695 236.594 198.649 236.221C198.062 236.831 197.36 237.137 196.544 237.137C195.815 237.137 195.215 236.932 194.746 236.521C194.281 236.107 194.049 235.583 194.049 234.949C194.049 234.179 194.34 233.582 194.924 233.158C195.512 232.73 196.337 232.516 197.398 232.516H198.629V231.935C198.629 231.493 198.497 231.142 198.232 230.882C197.968 230.618 197.578 230.485 197.063 230.485C196.612 230.485 196.234 230.599 195.929 230.827C195.623 231.055 195.471 231.331 195.471 231.654H194.199C194.199 231.285 194.329 230.93 194.589 230.588C194.853 230.242 195.209 229.968 195.655 229.768C196.106 229.567 196.601 229.467 197.139 229.467C197.991 229.467 198.659 229.681 199.142 230.109C199.625 230.533 199.875 231.119 199.894 231.866V235.271C199.894 235.95 199.98 236.49 200.153 236.891V237H198.827ZM196.729 236.036C197.125 236.036 197.501 235.934 197.856 235.729C198.212 235.523 198.469 235.257 198.629 234.929V233.411H197.638C196.088 233.411 195.313 233.865 195.313 234.771C195.313 235.168 195.446 235.478 195.71 235.701C195.974 235.924 196.314 236.036 196.729 236.036ZM203.291 234.19H202.149L202.061 227.047H203.387L203.291 234.19ZM202.013 236.364C202.013 236.159 202.074 235.988 202.197 235.852C202.325 235.71 202.512 235.64 202.758 235.64C203.004 235.64 203.191 235.71 203.318 235.852C203.446 235.988 203.51 236.159 203.51 236.364C203.51 236.569 203.446 236.74 203.318 236.877C203.191 237.009 203.004 237.075 202.758 237.075C202.512 237.075 202.325 237.009 202.197 236.877C202.074 236.74 202.013 236.569 202.013 236.364Z" fill="white"/>
<path d="M16.4734 186H13.9534L8.24735 177.378V186H5.72735V173.418H8.24735L13.9534 182.058V173.418H16.4734V186ZM28.2337 180.798C28.2337 181.158 28.2097 181.482 28.1617 181.77H20.8717C20.9317 182.49 21.1837 183.054 21.6277 183.462C22.0717 183.87 22.6177 184.074 23.2657 184.074C24.2017 184.074 24.8677 183.672 25.2637 182.868H27.9817C27.6937 183.828 27.1417 184.62 26.3257 185.244C25.5097 185.856 24.5077 186.162 23.3197 186.162C22.3597 186.162 21.4957 185.952 20.7277 185.532C19.9717 185.1 19.3777 184.494 18.9457 183.714C18.5257 182.934 18.3157 182.034 18.3157 181.014C18.3157 179.982 18.5257 179.076 18.9457 178.296C19.3657 177.516 19.9537 176.916 20.7097 176.496C21.4657 176.076 22.3357 175.866 23.3197 175.866C24.2677 175.866 25.1137 176.07 25.8577 176.478C26.6137 176.886 27.1957 177.468 27.6037 178.224C28.0237 178.968 28.2337 179.826 28.2337 180.798ZM25.6237 180.078C25.6117 179.43 25.3777 178.914 24.9217 178.53C24.4657 178.134 23.9077 177.936 23.2477 177.936C22.6237 177.936 22.0957 178.128 21.6637 178.512C21.2437 178.884 20.9857 179.406 20.8897 180.078H25.6237ZM35.5991 175.884C36.7871 175.884 37.7471 176.262 38.4791 177.018C39.2111 177.762 39.5771 178.806 39.5771 180.15V186H37.0571V180.492C37.0571 179.7 36.8591 179.094 36.4631 178.674C36.0671 178.242 35.5271 178.026 34.8431 178.026C34.1471 178.026 33.5951 178.242 33.1871 178.674C32.7911 179.094 32.5931 179.7 32.5931 180.492V186H30.0731V176.028H32.5931V177.27C32.9291 176.838 33.3551 176.502 33.8711 176.262C34.3991 176.01 34.9751 175.884 35.5991 175.884ZM47.5894 175.884C48.3454 175.884 49.0174 176.052 49.6054 176.388C50.1934 176.712 50.6494 177.198 50.9734 177.846C51.3094 178.482 51.4774 179.25 51.4774 180.15V186H48.9574V180.492C48.9574 179.7 48.7594 179.094 48.3634 178.674C47.9674 178.242 47.4274 178.026 46.7434 178.026C46.0474 178.026 45.4954 178.242 45.0874 178.674C44.6914 179.094 44.4934 179.7 44.4934 180.492V186H41.9734V172.68H44.4934V177.27C44.8174 176.838 45.2494 176.502 45.7894 176.262C46.3294 176.01 46.9294 175.884 47.5894 175.884ZM63.2878 176.028V186H60.7498V184.74C60.4258 185.172 59.9998 185.514 59.4718 185.766C58.9558 186.006 58.3918 186.126 57.7798 186.126C56.9998 186.126 56.3098 185.964 55.7098 185.64C55.1098 185.304 54.6358 184.818 54.2878 184.182C53.9518 183.534 53.7838 182.766 53.7838 181.878V176.028H56.3038V181.518C56.3038 182.31 56.5018 182.922 56.8978 183.354C57.2938 183.774 57.8338 183.984 58.5178 183.984C59.2138 183.984 59.7598 183.774 60.1558 183.354C60.5518 182.922 60.7498 182.31 60.7498 181.518V176.028H63.2878ZM78.1582 175.884C79.3822 175.884 80.3662 176.262 81.1102 177.018C81.8662 177.762 82.2442 178.806 82.2442 180.15V186H79.7242V180.492C79.7242 179.712 79.5262 179.118 79.1302 178.71C78.7342 178.29 78.1942 178.08 77.5102 178.08C76.8262 178.08 76.2802 178.29 75.8722 178.71C75.4762 179.118 75.2782 179.712 75.2782 180.492V186H72.7582V180.492C72.7582 179.712 72.5602 179.118 72.1642 178.71C71.7682 178.29 71.2282 178.08 70.5442 178.08C69.8482 178.08 69.2962 178.29 68.8882 178.71C68.4922 179.118 68.2942 179.712 68.2942 180.492V186H65.7742V176.028H68.2942V177.234C68.6182 176.814 69.0322 176.484 69.5362 176.244C70.0522 176.004 70.6162 175.884 71.2282 175.884C72.0082 175.884 72.7042 176.052 73.3162 176.388C73.9282 176.712 74.4022 177.18 74.7382 177.792C75.0622 177.216 75.5302 176.754 76.1422 176.406C76.7662 176.058 77.4382 175.884 78.1582 175.884ZM83.9876 180.978C83.9876 179.97 84.1856 179.076 84.5816 178.296C84.9896 177.516 85.5356 176.916 86.2196 176.496C86.9156 176.076 87.6896 175.866 88.5416 175.866C89.2856 175.866 89.9336 176.016 90.4856 176.316C91.0496 176.616 91.4996 176.994 91.8356 177.45V176.028H94.3736V186H91.8356V184.542C91.5116 185.01 91.0616 185.4 90.4856 185.712C89.9216 186.012 89.2676 186.162 88.5236 186.162C87.6836 186.162 86.9156 185.946 86.2196 185.514C85.5356 185.082 84.9896 184.476 84.5816 183.696C84.1856 182.904 83.9876 181.998 83.9876 180.978ZM91.8356 181.014C91.8356 180.402 91.7156 179.88 91.4756 179.448C91.2356 179.004 90.9116 178.668 90.5036 178.44C90.0956 178.2 89.6576 178.08 89.1896 178.08C88.7216 178.08 88.2896 178.194 87.8936 178.422C87.4976 178.65 87.1736 178.986 86.9216 179.43C86.6816 179.862 86.5616 180.378 86.5616 180.978C86.5616 181.578 86.6816 182.106 86.9216 182.562C87.1736 183.006 87.4976 183.348 87.8936 183.588C88.3016 183.828 88.7336 183.948 89.1896 183.948C89.6576 183.948 90.0956 183.834 90.5036 183.606C90.9116 183.366 91.2356 183.03 91.4756 182.598C91.7156 182.154 91.8356 181.626 91.8356 181.014ZM103.644 177.468C103.968 177.012 104.412 176.634 104.976 176.334C105.552 176.022 106.206 175.866 106.938 175.866C107.79 175.866 108.558 176.076 109.242 176.496C109.938 176.916 110.484 177.516 110.88 178.296C111.288 179.064 111.492 179.958 111.492 180.978C111.492 181.998 111.288 182.904 110.88 183.696C110.484 184.476 109.938 185.082 109.242 185.514C108.558 185.946 107.79 186.162 106.938 186.162C106.206 186.162 105.558 186.012 104.994 185.712C104.442 185.412 103.992 185.034 103.644 184.578V190.752H101.124V176.028H103.644V177.468ZM108.918 180.978C108.918 180.378 108.792 179.862 108.54 179.43C108.3 178.986 107.976 178.65 107.568 178.422C107.172 178.194 106.74 178.08 106.272 178.08C105.816 178.08 105.384 178.2 104.976 178.44C104.58 178.668 104.256 179.004 104.004 179.448C103.764 179.892 103.644 180.414 103.644 181.014C103.644 181.614 103.764 182.136 104.004 182.58C104.256 183.024 104.58 183.366 104.976 183.606C105.384 183.834 105.816 183.948 106.272 183.948C106.74 183.948 107.172 183.828 107.568 183.588C107.976 183.348 108.3 183.006 108.54 182.562C108.792 182.118 108.918 181.59 108.918 180.978ZM122.593 180.798C122.593 181.158 122.569 181.482 122.521 181.77H115.231C115.291 182.49 115.543 183.054 115.987 183.462C116.431 183.87 116.977 184.074 117.625 184.074C118.561 184.074 119.227 183.672 119.623 182.868H122.341C122.053 183.828 121.501 184.62 120.685 185.244C119.869 185.856 118.867 186.162 117.679 186.162C116.719 186.162 115.855 185.952 115.087 185.532C114.331 185.1 113.737 184.494 113.305 183.714C112.885 182.934 112.675 182.034 112.675 181.014C112.675 179.982 112.885 179.076 113.305 178.296C113.725 177.516 114.313 176.916 115.069 176.496C115.825 176.076 116.695 175.866 117.679 175.866C118.627 175.866 119.473 176.07 120.217 176.478C120.973 176.886 121.555 177.468 121.963 178.224C122.383 178.968 122.593 179.826 122.593 180.798ZM119.983 180.078C119.971 179.43 119.737 178.914 119.281 178.53C118.825 178.134 118.267 177.936 117.607 177.936C116.983 177.936 116.455 178.128 116.023 178.512C115.603 178.884 115.345 179.406 115.249 180.078H119.983ZM126.952 177.576C127.276 177.048 127.696 176.634 128.212 176.334C128.74 176.034 129.34 175.884 130.012 175.884V178.53H129.346C128.554 178.53 127.954 178.716 127.546 179.088C127.15 179.46 126.952 180.108 126.952 181.032V186H124.432V176.028H126.952V177.576ZM135.616 175.866C136.36 175.866 137.014 176.016 137.578 176.316C138.142 176.604 138.586 176.982 138.91 177.45V176.028H141.448V186.072C141.448 186.996 141.262 187.818 140.89 188.538C140.518 189.27 139.96 189.846 139.216 190.266C138.472 190.698 137.572 190.914 136.516 190.914C135.1 190.914 133.936 190.584 133.024 189.924C132.124 189.264 131.614 188.364 131.494 187.224H133.996C134.128 187.68 134.41 188.04 134.842 188.304C135.286 188.58 135.82 188.718 136.444 188.718C137.176 188.718 137.77 188.496 138.226 188.052C138.682 187.62 138.91 186.96 138.91 186.072V184.524C138.586 184.992 138.136 185.382 137.56 185.694C136.996 186.006 136.348 186.162 135.616 186.162C134.776 186.162 134.008 185.946 133.312 185.514C132.616 185.082 132.064 184.476 131.656 183.696C131.26 182.904 131.062 181.998 131.062 180.978C131.062 179.97 131.26 179.076 131.656 178.296C132.064 177.516 132.61 176.916 133.294 176.496C133.99 176.076 134.764 175.866 135.616 175.866ZM138.91 181.014C138.91 180.402 138.79 179.88 138.55 179.448C138.31 179.004 137.986 178.668 137.578 178.44C137.17 178.2 136.732 178.08 136.264 178.08C135.796 178.08 135.364 178.194 134.968 178.422C134.572 178.65 134.248 178.986 133.996 179.43C133.756 179.862 133.636 180.378 133.636 180.978C133.636 181.578 133.756 182.106 133.996 182.562C134.248 183.006 134.572 183.348 134.968 183.588C135.376 183.828 135.808 183.948 136.264 183.948C136.732 183.948 137.17 183.834 137.578 183.606C137.986 183.366 138.31 183.03 138.55 182.598C138.79 182.154 138.91 181.626 138.91 181.014ZM153.323 176.028V186H150.785V184.74C150.461 185.172 150.035 185.514 149.507 185.766C148.991 186.006 148.427 186.126 147.815 186.126C147.035 186.126 146.345 185.964 145.745 185.64C145.145 185.304 144.671 184.818 144.323 184.182C143.987 183.534 143.819 182.766 143.819 181.878V176.028H146.339V181.518C146.339 182.31 146.537 182.922 146.933 183.354C147.329 183.774 147.869 183.984 148.553 183.984C149.249 183.984 149.795 183.774 150.191 183.354C150.587 182.922 150.785 182.31 150.785 181.518V176.028H153.323ZM161.335 175.884C162.523 175.884 163.483 176.262 164.215 177.018C164.947 177.762 165.313 178.806 165.313 180.15V186H162.793V180.492C162.793 179.7 162.595 179.094 162.199 178.674C161.803 178.242 161.263 178.026 160.579 178.026C159.883 178.026 159.331 178.242 158.923 178.674C158.527 179.094 158.329 179.7 158.329 180.492V186H155.809V176.028H158.329V177.27C158.665 176.838 159.091 176.502 159.607 176.262C160.135 176.01 160.711 175.884 161.335 175.884ZM170.644 178.098V182.922C170.644 183.258 170.722 183.504 170.878 183.66C171.046 183.804 171.322 183.876 171.706 183.876H172.876V186H171.292C169.168 186 168.106 184.968 168.106 182.904V178.098H166.918V176.028H168.106V173.562H170.644V176.028H172.876V178.098H170.644ZM174.04 180.978C174.04 179.97 174.238 179.076 174.634 178.296C175.042 177.516 175.588 176.916 176.272 176.496C176.968 176.076 177.742 175.866 178.594 175.866C179.338 175.866 179.986 176.016 180.538 176.316C181.102 176.616 181.552 176.994 181.888 177.45V176.028H184.426V186H181.888V184.542C181.564 185.01 181.114 185.4 180.538 185.712C179.974 186.012 179.32 186.162 178.576 186.162C177.736 186.162 176.968 185.946 176.272 185.514C175.588 185.082 175.042 184.476 174.634 183.696C174.238 182.904 174.04 181.998 174.04 180.978ZM181.888 181.014C181.888 180.402 181.768 179.88 181.528 179.448C181.288 179.004 180.964 178.668 180.556 178.44C180.148 178.2 179.71 178.08 179.242 178.08C178.774 178.08 178.342 178.194 177.946 178.422C177.55 178.65 177.226 178.986 176.974 179.43C176.734 179.862 176.614 180.378 176.614 180.978C176.614 181.578 176.734 182.106 176.974 182.562C177.226 183.006 177.55 183.348 177.946 183.588C178.354 183.828 178.786 183.948 179.242 183.948C179.71 183.948 180.148 183.834 180.556 183.606C180.964 183.366 181.288 183.03 181.528 182.598C181.768 182.154 181.888 181.626 181.888 181.014ZM193.697 177.468C194.021 177.012 194.465 176.634 195.029 176.334C195.605 176.022 196.259 175.866 196.991 175.866C197.843 175.866 198.611 176.076 199.295 176.496C199.991 176.916 200.537 177.516 200.933 178.296C201.341 179.064 201.545 179.958 201.545 180.978C201.545 181.998 201.341 182.904 200.933 183.696C200.537 184.476 199.991 185.082 199.295 185.514C198.611 185.946 197.843 186.162 196.991 186.162C196.259 186.162 195.611 186.012 195.047 185.712C194.495 185.412 194.045 185.034 193.697 184.578V190.752H191.177V176.028H193.697V177.468ZM198.971 180.978C198.971 180.378 198.845 179.862 198.593 179.43C198.353 178.986 198.029 178.65 197.621 178.422C197.225 178.194 196.793 178.08 196.325 178.08C195.869 178.08 195.437 178.2 195.029 178.44C194.633 178.668 194.309 179.004 194.057 179.448C193.817 179.892 193.697 180.414 193.697 181.014C193.697 181.614 193.817 182.136 194.057 182.58C194.309 183.024 194.633 183.366 195.029 183.606C195.437 183.834 195.869 183.948 196.325 183.948C196.793 183.948 197.225 183.828 197.621 183.588C198.029 183.348 198.353 183.006 198.593 182.562C198.845 182.118 198.971 181.59 198.971 180.978ZM207.804 186.162C206.844 186.162 205.98 185.952 205.212 185.532C204.444 185.1 203.838 184.494 203.394 183.714C202.962 182.934 202.746 182.034 202.746 181.014C202.746 179.994 202.968 179.094 203.412 178.314C203.868 177.534 204.486 176.934 205.266 176.514C206.046 176.082 206.916 175.866 207.876 175.866C208.836 175.866 209.706 176.082 210.486 176.514C211.266 176.934 211.878 177.534 212.322 178.314C212.778 179.094 213.006 179.994 213.006 181.014C213.006 182.034 212.772 182.934 212.304 183.714C211.848 184.494 211.224 185.1 210.432 185.532C209.652 185.952 208.776 186.162 207.804 186.162ZM207.804 183.966C208.26 183.966 208.686 183.858 209.082 183.642C209.49 183.414 209.814 183.078 210.054 182.634C210.294 182.19 210.414 181.65 210.414 181.014C210.414 180.066 210.162 179.34 209.658 178.836C209.166 178.32 208.56 178.062 207.84 178.062C207.12 178.062 206.514 178.32 206.022 178.836C205.542 179.34 205.302 180.066 205.302 181.014C205.302 181.962 205.536 182.694 206.004 183.21C206.484 183.714 207.084 183.966 207.804 183.966ZM217.374 177.576C217.698 177.048 218.118 176.634 218.634 176.334C219.162 176.034 219.762 175.884 220.434 175.884V178.53H219.768C218.976 178.53 218.376 178.716 217.968 179.088C217.572 179.46 217.374 180.108 217.374 181.032V186H214.854V176.028H217.374V177.576ZM225.773 180.978C225.773 179.97 225.971 179.076 226.367 178.296C226.775 177.516 227.321 176.916 228.005 176.496C228.701 176.076 229.475 175.866 230.327 175.866C231.071 175.866 231.719 176.016 232.271 176.316C232.835 176.616 233.285 176.994 233.621 177.45V176.028H236.159V186H233.621V184.542C233.297 185.01 232.847 185.4 232.271 185.712C231.707 186.012 231.053 186.162 230.309 186.162C229.469 186.162 228.701 185.946 228.005 185.514C227.321 185.082 226.775 184.476 226.367 183.696C225.971 182.904 225.773 181.998 225.773 180.978ZM233.621 181.014C233.621 180.402 233.501 179.88 233.261 179.448C233.021 179.004 232.697 178.668 232.289 178.44C231.881 178.2 231.443 178.08 230.975 178.08C230.507 178.08 230.075 178.194 229.679 178.422C229.283 178.65 228.959 178.986 228.707 179.43C228.467 179.862 228.347 180.378 228.347 180.978C228.347 181.578 228.467 182.106 228.707 182.562C228.959 183.006 229.283 183.348 229.679 183.588C230.087 183.828 230.519 183.948 230.975 183.948C231.443 183.948 231.881 183.834 232.289 183.606C232.697 183.366 233.021 183.03 233.261 182.598C233.501 182.154 233.621 181.626 233.621 181.014ZM237.972 180.996C237.972 180 238.176 179.118 238.584 178.35C239.004 177.57 239.568 176.964 240.276 176.532C240.984 176.1 241.764 175.884 242.616 175.884C243.324 175.884 243.948 176.022 244.488 176.298C245.04 176.562 245.484 176.904 245.82 177.324V176.028H248.358V190.752H245.82V184.632C245.484 185.064 245.034 185.424 244.47 185.712C243.906 186 243.27 186.144 242.562 186.144C241.722 186.144 240.948 185.928 240.24 185.496C239.544 185.052 238.992 184.44 238.584 183.66C238.176 182.88 237.972 181.992 237.972 180.996ZM245.82 181.014C245.82 180.402 245.694 179.874 245.442 179.43C245.19 178.986 244.86 178.65 244.452 178.422C244.056 178.194 243.63 178.08 243.174 178.08C242.73 178.08 242.304 178.194 241.896 178.422C241.5 178.65 241.176 178.986 240.924 179.43C240.672 179.862 240.546 180.384 240.546 180.996C240.546 181.608 240.672 182.142 240.924 182.598C241.176 183.042 241.5 183.378 241.896 183.606C242.304 183.834 242.73 183.948 243.174 183.948C243.63 183.948 244.056 183.834 244.452 183.606C244.86 183.378 245.19 183.042 245.442 182.598C245.694 182.154 245.82 181.626 245.82 181.014ZM260.233 176.028V186H257.695V184.74C257.371 185.172 256.945 185.514 256.417 185.766C255.901 186.006 255.337 186.126 254.725 186.126C253.945 186.126 253.255 185.964 252.655 185.64C252.055 185.304 251.581 184.818 251.233 184.182C250.897 183.534 250.729 182.766 250.729 181.878V176.028H253.249V181.518C253.249 182.31 253.447 182.922 253.843 183.354C254.239 183.774 254.779 183.984 255.463 183.984C256.159 183.984 256.705 183.774 257.101 183.354C257.497 182.922 257.695 182.31 257.695 181.518V176.028H260.233ZM263.998 174.84C263.554 174.84 263.182 174.702 262.882 174.426C262.594 174.138 262.45 173.784 262.45 173.364C262.45 172.944 262.594 172.596 262.882 172.32C263.182 172.032 263.554 171.888 263.998 171.888C264.442 171.888 264.808 172.032 265.096 172.32C265.396 172.596 265.546 172.944 265.546 173.364C265.546 173.784 265.396 174.138 265.096 174.426C264.808 174.702 264.442 174.84 263.998 174.84ZM265.24 176.028V186H262.72V176.028H265.24ZM268.845 186.126C268.389 186.126 268.011 185.988 267.711 185.712C267.423 185.424 267.279 185.07 267.279 184.65C267.279 184.23 267.423 183.882 267.711 183.606C268.011 183.318 268.389 183.174 268.845 183.174C269.289 183.174 269.655 183.318 269.943 183.606C270.231 183.882 270.375 184.23 270.375 184.65C270.375 185.07 270.231 185.424 269.943 185.712C269.655 185.988 269.289 186.126 268.845 186.126ZM273.521 186.126C273.065 186.126 272.687 185.988 272.387 185.712C272.099 185.424 271.955 185.07 271.955 184.65C271.955 184.23 272.099 183.882 272.387 183.606C272.687 183.318 273.065 183.174 273.521 183.174C273.965 183.174 274.331 183.318 274.619 183.606C274.907 183.882 275.051 184.23 275.051 184.65C275.051 185.07 274.907 185.424 274.619 185.712C274.331 185.988 273.965 186.126 273.521 186.126ZM278.197 186.126C277.741 186.126 277.363 185.988 277.063 185.712C276.775 185.424 276.631 185.07 276.631 184.65C276.631 184.23 276.775 183.882 277.063 183.606C277.363 183.318 277.741 183.174 278.197 183.174C278.641 183.174 279.007 183.318 279.295 183.606C279.583 183.882 279.727 184.23 279.727 184.65C279.727 185.07 279.583 185.424 279.295 185.712C279.007 185.988 278.641 186.126 278.197 186.126Z" fill="white"/>
<circle opacity="0.1" cx="142" cy="75" r="75" fill="#835AFD"/>
<path d="M76 29.7229V62.7836V65.145C76 67.7534 78.1145 69.868 80.7229 69.868H111.422L124.036 81.5118C124.883 82.2934 126.233 81.5235 125.992 80.3968L123.229 67.5065H131.495C134.103 67.5065 136.218 65.392 136.218 62.7836V29.7229C136.218 27.1145 134.103 25 131.495 25H80.7229C78.1145 25 76 27.1145 76 29.7229Z" fill="#835AFD"/>
<path d="M216.218 57.7229V90.7836V93.145C216.218 95.7534 214.103 97.868 211.495 97.868H180.795L168.181 109.512C167.335 110.293 165.984 109.524 166.226 108.397L168.988 95.5065H160.723C158.115 95.5065 156 93.392 156 90.7836V57.7229C156 55.1145 158.115 53 160.723 53H211.495C214.103 53 216.218 55.1145 216.218 57.7229Z" fill="#E559F9"/>
<path d="M109 101.41V118.281V119.486C109 120.817 110.089 121.896 111.431 121.896H127.235L133.729 127.838C134.165 128.237 134.86 127.844 134.736 127.269L133.314 120.691H137.569C138.911 120.691 140 119.612 140 118.281V101.41C140 100.079 138.911 99 137.569 99H111.431C110.089 99 109 100.079 109 101.41Z" fill="#D67EE2"/>
<circle cx="92.5" cy="46.5" r="3.5" fill="#FEFEFE"/>
<circle cx="105.5" cy="46.5" r="3.5" fill="#FEFEFE"/>
<circle cx="118.5" cy="46.5" r="3.5" fill="#FEFEFE"/>
</svg>
