<svg width="284" height="243" viewBox="0 0 284 243" fill="none" xmlns="http://www.w3.org/2000/svg">
<path d="M7.25684 211.4H2.94336V214.927H7.9541V216H1.63086V206.047H7.88574V207.127H2.94336V210.326H7.25684V211.4ZM10.5859 208.604L10.627 209.533C11.1921 208.822 11.9303 208.467 12.8418 208.467C14.4049 208.467 15.1934 209.349 15.207 211.112V216H13.9424V211.106C13.9378 210.572 13.8148 210.178 13.5732 209.923C13.3363 209.668 12.9648 209.54 12.459 209.54C12.0488 209.54 11.6888 209.65 11.3789 209.868C11.069 210.087 10.8275 210.374 10.6543 210.73V216H9.38965V208.604H10.5859ZM19.5547 214.284L21.3867 208.604H22.6787L20.0264 216H19.0625L16.3828 208.604H17.6748L19.5547 214.284ZM25.2695 216H24.0049V208.604H25.2695V216ZM23.9023 206.642C23.9023 206.437 23.9639 206.263 24.0869 206.122C24.2145 205.981 24.4014 205.91 24.6475 205.91C24.8936 205.91 25.0804 205.981 25.208 206.122C25.3356 206.263 25.3994 206.437 25.3994 206.642C25.3994 206.847 25.3356 207.018 25.208 207.154C25.0804 207.291 24.8936 207.359 24.6475 207.359C24.4014 207.359 24.2145 207.291 24.0869 207.154C23.9639 207.018 23.9023 206.847 23.9023 206.642ZM30.3691 216.137C29.3665 216.137 28.5508 215.809 27.9219 215.152C27.293 214.492 26.9785 213.61 26.9785 212.507V212.275C26.9785 211.541 27.1175 210.887 27.3955 210.313C27.6781 209.734 28.07 209.283 28.5713 208.959C29.0771 208.631 29.624 208.467 30.2119 208.467C31.1735 208.467 31.9209 208.784 32.4541 209.417C32.9873 210.051 33.2539 210.957 33.2539 212.138V212.664H28.2432C28.2614 213.393 28.4733 213.984 28.8789 214.435C29.2891 214.881 29.8086 215.105 30.4375 215.105C30.8841 215.105 31.2624 215.013 31.5723 214.831C31.8822 214.649 32.1533 214.407 32.3857 214.107L33.1582 214.708C32.5384 215.661 31.6087 216.137 30.3691 216.137ZM30.2119 209.506C29.7015 209.506 29.2731 209.693 28.9268 210.067C28.5804 210.436 28.3662 210.955 28.2842 211.625H31.9893V211.529C31.9528 210.887 31.7796 210.39 31.4697 210.039C31.1598 209.684 30.7406 209.506 30.2119 209.506ZM37.8613 212.234C37.8613 211.509 38.0026 210.857 38.2852 210.278C38.5723 209.7 38.9688 209.253 39.4746 208.939C39.985 208.624 40.5661 208.467 41.2178 208.467C42.2249 208.467 43.0384 208.816 43.6582 209.513C44.2826 210.21 44.5947 211.137 44.5947 212.295V212.384C44.5947 213.104 44.4557 213.751 44.1777 214.325C43.9043 214.895 43.5101 215.339 42.9951 215.658C42.4847 215.977 41.8968 216.137 41.2314 216.137C40.2288 216.137 39.4154 215.788 38.791 215.091C38.1712 214.394 37.8613 213.471 37.8613 212.322V212.234ZM39.1328 212.384C39.1328 213.204 39.3219 213.863 39.7002 214.359C40.083 214.856 40.5934 215.105 41.2314 215.105C41.874 215.105 42.3844 214.854 42.7627 214.353C43.141 213.847 43.3301 213.14 43.3301 212.234C43.3301 211.422 43.1364 210.766 42.749 210.265C42.3662 209.759 41.8558 209.506 41.2178 209.506C40.5934 209.506 40.0898 209.754 39.707 210.251C39.3242 210.748 39.1328 211.459 39.1328 212.384ZM52.6201 215.105C53.0713 215.105 53.4655 214.968 53.8027 214.694C54.14 214.421 54.3268 214.079 54.3633 213.669H55.5596C55.5368 214.093 55.391 214.496 55.1221 214.879C54.8532 215.262 54.4932 215.567 54.042 215.795C53.5954 216.023 53.1214 216.137 52.6201 216.137C51.613 216.137 50.8109 215.802 50.2139 215.132C49.6214 214.457 49.3252 213.537 49.3252 212.37V212.158C49.3252 211.438 49.4574 210.798 49.7217 210.237C49.986 209.677 50.3643 209.242 50.8564 208.932C51.3532 208.622 51.9388 208.467 52.6133 208.467C53.4427 208.467 54.1309 208.715 54.6777 209.212C55.2292 209.709 55.5231 210.354 55.5596 211.147H54.3633C54.3268 210.668 54.1445 210.276 53.8164 209.971C53.4928 209.661 53.0918 209.506 52.6133 209.506C51.9707 209.506 51.4717 209.738 51.1162 210.203C50.7653 210.664 50.5898 211.331 50.5898 212.206V212.445C50.5898 213.298 50.7653 213.954 51.1162 214.414C51.4671 214.874 51.9684 215.105 52.6201 215.105ZM56.6465 212.234C56.6465 211.509 56.7878 210.857 57.0703 210.278C57.3574 209.7 57.7539 209.253 58.2598 208.939C58.7702 208.624 59.3512 208.467 60.0029 208.467C61.0101 208.467 61.8236 208.816 62.4434 209.513C63.0677 210.21 63.3799 211.137 63.3799 212.295V212.384C63.3799 213.104 63.2409 213.751 62.9629 214.325C62.6895 214.895 62.2952 215.339 61.7803 215.658C61.2699 215.977 60.682 216.137 60.0166 216.137C59.014 216.137 58.2005 215.788 57.5762 215.091C56.9564 214.394 56.6465 213.471 56.6465 212.322V212.234ZM57.918 212.384C57.918 213.204 58.1071 213.863 58.4854 214.359C58.8682 214.856 59.3786 215.105 60.0166 215.105C60.6592 215.105 61.1696 214.854 61.5479 214.353C61.9261 213.847 62.1152 213.14 62.1152 212.234C62.1152 211.422 61.9215 210.766 61.5342 210.265C61.1514 209.759 60.641 209.506 60.0029 209.506C59.3786 209.506 58.875 209.754 58.4922 210.251C58.1094 210.748 57.918 211.459 57.918 212.384ZM60.5771 205.5H62.1084L60.2764 207.51H59.2578L60.5771 205.5ZM64.6582 212.24C64.6582 211.106 64.9271 210.194 65.4648 209.506C66.0026 208.813 66.7067 208.467 67.5771 208.467C68.443 208.467 69.1289 208.763 69.6348 209.356V205.5H70.8994V216H69.7373L69.6758 215.207C69.1699 215.827 68.4658 216.137 67.5635 216.137C66.7067 216.137 66.0072 215.786 65.4648 215.084C64.9271 214.382 64.6582 213.466 64.6582 212.336V212.24ZM65.9229 212.384C65.9229 213.222 66.096 213.879 66.4424 214.353C66.7887 214.827 67.2673 215.064 67.8779 215.064C68.68 215.064 69.2656 214.704 69.6348 213.984V210.586C69.2565 209.889 68.6755 209.54 67.8916 209.54C67.2718 209.54 66.7887 209.779 66.4424 210.258C66.096 210.736 65.9229 211.445 65.9229 212.384ZM74.2422 216H72.9775V208.604H74.2422V216ZM72.875 206.642C72.875 206.437 72.9365 206.263 73.0596 206.122C73.1872 205.981 73.374 205.91 73.6201 205.91C73.8662 205.91 74.0531 205.981 74.1807 206.122C74.3083 206.263 74.3721 206.437 74.3721 206.642C74.3721 206.847 74.3083 207.018 74.1807 207.154C74.0531 207.291 73.8662 207.359 73.6201 207.359C73.374 207.359 73.1872 207.291 73.0596 207.154C72.9365 207.018 72.875 206.847 72.875 206.642ZM75.9717 212.24C75.9717 211.087 76.2383 210.171 76.7715 209.492C77.3047 208.809 78.0111 208.467 78.8906 208.467C79.793 208.467 80.4971 208.786 81.0029 209.424L81.0645 208.604H82.2197V215.822C82.2197 216.779 81.9349 217.534 81.3652 218.085C80.8001 218.637 80.0391 218.912 79.082 218.912C78.5488 218.912 78.027 218.798 77.5166 218.57C77.0062 218.343 76.6165 218.03 76.3477 217.634L77.0039 216.875C77.5462 217.545 78.2093 217.88 78.9932 217.88C79.6084 217.88 80.0869 217.707 80.4287 217.36C80.7751 217.014 80.9482 216.526 80.9482 215.898V215.262C80.4424 215.845 79.752 216.137 78.877 216.137C78.0111 216.137 77.3092 215.788 76.7715 215.091C76.2383 214.394 75.9717 213.443 75.9717 212.24ZM77.2432 212.384C77.2432 213.218 77.4141 213.874 77.7559 214.353C78.0977 214.827 78.5762 215.064 79.1914 215.064C79.9889 215.064 80.5745 214.701 80.9482 213.977V210.6C80.5609 209.893 79.9798 209.54 79.2051 209.54C78.5898 209.54 78.109 209.779 77.7627 210.258C77.4163 210.736 77.2432 211.445 77.2432 212.384ZM83.7988 212.234C83.7988 211.509 83.9401 210.857 84.2227 210.278C84.5098 209.7 84.9062 209.253 85.4121 208.939C85.9225 208.624 86.5036 208.467 87.1553 208.467C88.1624 208.467 88.9759 208.816 89.5957 209.513C90.2201 210.21 90.5322 211.137 90.5322 212.295V212.384C90.5322 213.104 90.3932 213.751 90.1152 214.325C89.8418 214.895 89.4476 215.339 88.9326 215.658C88.4222 215.977 87.8343 216.137 87.1689 216.137C86.1663 216.137 85.3529 215.788 84.7285 215.091C84.1087 214.394 83.7988 213.471 83.7988 212.322V212.234ZM85.0703 212.384C85.0703 213.204 85.2594 213.863 85.6377 214.359C86.0205 214.856 86.5309 215.105 87.1689 215.105C87.8115 215.105 88.3219 214.854 88.7002 214.353C89.0785 213.847 89.2676 213.14 89.2676 212.234C89.2676 211.422 89.0739 210.766 88.6865 210.265C88.3037 209.759 87.7933 209.506 87.1553 209.506C86.5309 209.506 86.0273 209.754 85.6445 210.251C85.2617 210.748 85.0703 211.459 85.0703 212.384ZM95.2832 212.24C95.2832 211.106 95.5521 210.194 96.0898 209.506C96.6276 208.813 97.3317 208.467 98.2021 208.467C99.068 208.467 99.7539 208.763 100.26 209.356V205.5H101.524V216H100.362L100.301 215.207C99.7949 215.827 99.0908 216.137 98.1885 216.137C97.3317 216.137 96.6322 215.786 96.0898 215.084C95.5521 214.382 95.2832 213.466 95.2832 212.336V212.24ZM96.5479 212.384C96.5479 213.222 96.721 213.879 97.0674 214.353C97.4137 214.827 97.8923 215.064 98.5029 215.064C99.305 215.064 99.8906 214.704 100.26 213.984V210.586C99.8815 209.889 99.3005 209.54 98.5166 209.54C97.8968 209.54 97.4137 209.779 97.0674 210.258C96.721 210.736 96.5479 211.445 96.5479 212.384ZM106.562 216.137C105.56 216.137 104.744 215.809 104.115 215.152C103.486 214.492 103.172 213.61 103.172 212.507V212.275C103.172 211.541 103.311 210.887 103.589 210.313C103.871 209.734 104.263 209.283 104.765 208.959C105.271 208.631 105.817 208.467 106.405 208.467C107.367 208.467 108.114 208.784 108.647 209.417C109.181 210.051 109.447 210.957 109.447 212.138V212.664H104.437C104.455 213.393 104.667 213.984 105.072 214.435C105.482 214.881 106.002 215.105 106.631 215.105C107.077 215.105 107.456 215.013 107.766 214.831C108.076 214.649 108.347 214.407 108.579 214.107L109.352 214.708C108.732 215.661 107.802 216.137 106.562 216.137ZM106.405 209.506C105.895 209.506 105.466 209.693 105.12 210.067C104.774 210.436 104.56 210.955 104.478 211.625H108.183V211.529C108.146 210.887 107.973 210.39 107.663 210.039C107.353 209.684 106.934 209.506 106.405 209.506ZM115.224 214.038C115.224 213.696 115.094 213.432 114.834 213.245C114.579 213.054 114.13 212.89 113.487 212.753C112.849 212.616 112.341 212.452 111.963 212.261C111.589 212.069 111.311 211.842 111.129 211.577C110.951 211.313 110.862 210.998 110.862 210.634C110.862 210.028 111.118 209.515 111.628 209.096C112.143 208.677 112.799 208.467 113.597 208.467C114.435 208.467 115.114 208.683 115.634 209.116C116.158 209.549 116.42 210.103 116.42 210.777H115.148C115.148 210.431 115 210.133 114.704 209.882C114.412 209.631 114.043 209.506 113.597 209.506C113.136 209.506 112.776 209.606 112.517 209.807C112.257 210.007 112.127 210.269 112.127 210.593C112.127 210.898 112.248 211.128 112.489 211.283C112.731 211.438 113.166 211.586 113.795 211.728C114.428 211.869 114.941 212.038 115.333 212.234C115.725 212.429 116.014 212.666 116.201 212.944C116.393 213.218 116.488 213.553 116.488 213.949C116.488 214.61 116.224 215.141 115.695 215.542C115.167 215.939 114.481 216.137 113.638 216.137C113.045 216.137 112.521 216.032 112.065 215.822C111.61 215.613 111.252 215.321 110.992 214.947C110.737 214.569 110.609 214.161 110.609 213.724H111.874C111.897 214.148 112.065 214.485 112.38 214.735C112.699 214.982 113.118 215.105 113.638 215.105C114.116 215.105 114.499 215.009 114.786 214.818C115.078 214.622 115.224 214.362 115.224 214.038ZM119.852 206.813V208.604H121.232V209.581H119.852V214.168C119.852 214.464 119.913 214.688 120.036 214.838C120.159 214.984 120.369 215.057 120.665 215.057C120.811 215.057 121.011 215.029 121.267 214.975V216C120.934 216.091 120.61 216.137 120.296 216.137C119.731 216.137 119.305 215.966 119.018 215.624C118.73 215.282 118.587 214.797 118.587 214.168V209.581H117.24V208.604H118.587V206.813H119.852ZM127.282 216C127.209 215.854 127.15 215.595 127.104 215.221C126.517 215.832 125.815 216.137 124.999 216.137C124.27 216.137 123.671 215.932 123.201 215.522C122.736 215.107 122.504 214.583 122.504 213.949C122.504 213.179 122.796 212.582 123.379 212.158C123.967 211.73 124.792 211.516 125.854 211.516H127.084V210.935C127.084 210.493 126.952 210.142 126.688 209.882C126.423 209.618 126.034 209.485 125.519 209.485C125.067 209.485 124.689 209.599 124.384 209.827C124.078 210.055 123.926 210.331 123.926 210.654H122.654C122.654 210.285 122.784 209.93 123.044 209.588C123.308 209.242 123.664 208.968 124.11 208.768C124.562 208.567 125.056 208.467 125.594 208.467C126.446 208.467 127.114 208.681 127.597 209.109C128.08 209.533 128.33 210.119 128.349 210.866V214.271C128.349 214.95 128.435 215.49 128.608 215.891V216H127.282ZM125.184 215.036C125.58 215.036 125.956 214.934 126.312 214.729C126.667 214.524 126.924 214.257 127.084 213.929V212.411H126.093C124.543 212.411 123.769 212.865 123.769 213.772C123.769 214.168 123.901 214.478 124.165 214.701C124.429 214.925 124.769 215.036 125.184 215.036ZM138.11 214.038C138.11 213.696 137.98 213.432 137.721 213.245C137.465 213.054 137.017 212.89 136.374 212.753C135.736 212.616 135.228 212.452 134.85 212.261C134.476 212.069 134.198 211.842 134.016 211.577C133.838 211.313 133.749 210.998 133.749 210.634C133.749 210.028 134.004 209.515 134.515 209.096C135.03 208.677 135.686 208.467 136.483 208.467C137.322 208.467 138.001 208.683 138.521 209.116C139.045 209.549 139.307 210.103 139.307 210.777H138.035C138.035 210.431 137.887 210.133 137.591 209.882C137.299 209.631 136.93 209.506 136.483 209.506C136.023 209.506 135.663 209.606 135.403 209.807C135.144 210.007 135.014 210.269 135.014 210.593C135.014 210.898 135.134 211.128 135.376 211.283C135.618 211.438 136.053 211.586 136.682 211.728C137.315 211.869 137.828 212.038 138.22 212.234C138.612 212.429 138.901 212.666 139.088 212.944C139.279 213.218 139.375 213.553 139.375 213.949C139.375 214.61 139.111 215.141 138.582 215.542C138.053 215.939 137.368 216.137 136.524 216.137C135.932 216.137 135.408 216.032 134.952 215.822C134.496 215.613 134.139 215.321 133.879 214.947C133.624 214.569 133.496 214.161 133.496 213.724H134.761C134.784 214.148 134.952 214.485 135.267 214.735C135.586 214.982 136.005 215.105 136.524 215.105C137.003 215.105 137.386 215.009 137.673 214.818C137.965 214.622 138.11 214.362 138.11 214.038ZM145.589 216C145.516 215.854 145.457 215.595 145.411 215.221C144.823 215.832 144.121 216.137 143.306 216.137C142.576 216.137 141.977 215.932 141.508 215.522C141.043 215.107 140.811 214.583 140.811 213.949C140.811 213.179 141.102 212.582 141.686 212.158C142.273 211.73 143.098 211.516 144.16 211.516H145.391V210.935C145.391 210.493 145.258 210.142 144.994 209.882C144.73 209.618 144.34 209.485 143.825 209.485C143.374 209.485 142.996 209.599 142.69 209.827C142.385 210.055 142.232 210.331 142.232 210.654H140.961C140.961 210.285 141.091 209.93 141.351 209.588C141.615 209.242 141.97 208.968 142.417 208.768C142.868 208.567 143.363 208.467 143.9 208.467C144.753 208.467 145.42 208.681 145.903 209.109C146.386 209.533 146.637 210.119 146.655 210.866V214.271C146.655 214.95 146.742 215.49 146.915 215.891V216H145.589ZM143.49 215.036C143.887 215.036 144.263 214.934 144.618 214.729C144.974 214.524 145.231 214.257 145.391 213.929V212.411H144.399C142.85 212.411 142.075 212.865 142.075 213.772C142.075 214.168 142.207 214.478 142.472 214.701C142.736 214.925 143.076 215.036 143.49 215.036ZM150.012 216H148.747V205.5H150.012V216ZM156.608 216C156.535 215.854 156.476 215.595 156.431 215.221C155.843 215.832 155.141 216.137 154.325 216.137C153.596 216.137 152.997 215.932 152.527 215.522C152.062 215.107 151.83 214.583 151.83 213.949C151.83 213.179 152.122 212.582 152.705 212.158C153.293 211.73 154.118 211.516 155.18 211.516H156.41V210.935C156.41 210.493 156.278 210.142 156.014 209.882C155.749 209.618 155.36 209.485 154.845 209.485C154.394 209.485 154.015 209.599 153.71 209.827C153.405 210.055 153.252 210.331 153.252 210.654H151.98C151.98 210.285 152.11 209.93 152.37 209.588C152.634 209.242 152.99 208.968 153.437 208.768C153.888 208.567 154.382 208.467 154.92 208.467C155.772 208.467 156.44 208.681 156.923 209.109C157.406 209.533 157.657 210.119 157.675 210.866V214.271C157.675 214.95 157.761 215.49 157.935 215.891V216H156.608ZM154.51 215.036C154.906 215.036 155.282 214.934 155.638 214.729C155.993 214.524 156.251 214.257 156.41 213.929V212.411H155.419C153.869 212.411 153.095 212.865 153.095 213.772C153.095 214.168 153.227 214.478 153.491 214.701C153.756 214.925 154.095 215.036 154.51 215.036ZM169.378 212.384C169.378 213.51 169.12 214.416 168.605 215.105C168.09 215.793 167.393 216.137 166.514 216.137C165.616 216.137 164.91 215.852 164.395 215.282V218.844H163.13V208.604H164.285L164.347 209.424C164.862 208.786 165.577 208.467 166.493 208.467C167.382 208.467 168.084 208.802 168.599 209.472C169.118 210.142 169.378 211.074 169.378 212.268V212.384ZM168.113 212.24C168.113 211.406 167.936 210.748 167.58 210.265C167.225 209.782 166.737 209.54 166.117 209.54C165.352 209.54 164.777 209.88 164.395 210.559V214.093C164.773 214.767 165.352 215.105 166.131 215.105C166.737 215.105 167.218 214.865 167.573 214.387C167.933 213.904 168.113 213.188 168.113 212.24ZM175.558 216C175.485 215.854 175.425 215.595 175.38 215.221C174.792 215.832 174.09 216.137 173.274 216.137C172.545 216.137 171.946 215.932 171.477 215.522C171.012 215.107 170.779 214.583 170.779 213.949C170.779 213.179 171.071 212.582 171.654 212.158C172.242 211.73 173.067 211.516 174.129 211.516H175.359V210.935C175.359 210.493 175.227 210.142 174.963 209.882C174.699 209.618 174.309 209.485 173.794 209.485C173.343 209.485 172.965 209.599 172.659 209.827C172.354 210.055 172.201 210.331 172.201 210.654H170.93C170.93 210.285 171.06 209.93 171.319 209.588C171.584 209.242 171.939 208.968 172.386 208.768C172.837 208.567 173.331 208.467 173.869 208.467C174.721 208.467 175.389 208.681 175.872 209.109C176.355 209.533 176.606 210.119 176.624 210.866V214.271C176.624 214.95 176.711 215.49 176.884 215.891V216H175.558ZM173.459 215.036C173.855 215.036 174.231 214.934 174.587 214.729C174.942 214.524 175.2 214.257 175.359 213.929V212.411H174.368C172.819 212.411 172.044 212.865 172.044 213.772C172.044 214.168 172.176 214.478 172.44 214.701C172.705 214.925 173.044 215.036 173.459 215.036ZM182.182 209.738C181.99 209.707 181.783 209.691 181.56 209.691C180.73 209.691 180.167 210.044 179.871 210.75V216H178.606V208.604H179.837L179.857 209.458C180.272 208.797 180.86 208.467 181.621 208.467C181.867 208.467 182.054 208.499 182.182 208.563V209.738ZM187.644 216C187.571 215.854 187.511 215.595 187.466 215.221C186.878 215.832 186.176 216.137 185.36 216.137C184.631 216.137 184.032 215.932 183.562 215.522C183.098 215.107 182.865 214.583 182.865 213.949C182.865 213.179 183.157 212.582 183.74 212.158C184.328 211.73 185.153 211.516 186.215 211.516H187.445V210.935C187.445 210.493 187.313 210.142 187.049 209.882C186.785 209.618 186.395 209.485 185.88 209.485C185.429 209.485 185.05 209.599 184.745 209.827C184.44 210.055 184.287 210.331 184.287 210.654H183.016C183.016 210.285 183.146 209.93 183.405 209.588C183.67 209.242 184.025 208.968 184.472 208.768C184.923 208.567 185.417 208.467 185.955 208.467C186.807 208.467 187.475 208.681 187.958 209.109C188.441 209.533 188.692 210.119 188.71 210.866V214.271C188.71 214.95 188.797 215.49 188.97 215.891V216H187.644ZM185.545 215.036C185.941 215.036 186.317 214.934 186.673 214.729C187.028 214.524 187.286 214.257 187.445 213.929V212.411H186.454C184.905 212.411 184.13 212.865 184.13 213.772C184.13 214.168 184.262 214.478 184.526 214.701C184.791 214.925 185.13 215.036 185.545 215.036ZM198.472 214.038C198.472 213.696 198.342 213.432 198.082 213.245C197.827 213.054 197.378 212.89 196.735 212.753C196.097 212.616 195.589 212.452 195.211 212.261C194.837 212.069 194.559 211.842 194.377 211.577C194.199 211.313 194.11 210.998 194.11 210.634C194.11 210.028 194.366 209.515 194.876 209.096C195.391 208.677 196.047 208.467 196.845 208.467C197.683 208.467 198.362 208.683 198.882 209.116C199.406 209.549 199.668 210.103 199.668 210.777H198.396C198.396 210.431 198.248 210.133 197.952 209.882C197.66 209.631 197.291 209.506 196.845 209.506C196.384 209.506 196.024 209.606 195.765 209.807C195.505 210.007 195.375 210.269 195.375 210.593C195.375 210.898 195.496 211.128 195.737 211.283C195.979 211.438 196.414 211.586 197.043 211.728C197.676 211.869 198.189 212.038 198.581 212.234C198.973 212.429 199.262 212.666 199.449 212.944C199.641 213.218 199.736 213.553 199.736 213.949C199.736 214.61 199.472 215.141 198.943 215.542C198.415 215.939 197.729 216.137 196.886 216.137C196.293 216.137 195.769 216.032 195.313 215.822C194.858 215.613 194.5 215.321 194.24 214.947C193.985 214.569 193.857 214.161 193.857 213.724H195.122C195.145 214.148 195.313 214.485 195.628 214.735C195.947 214.982 196.366 215.105 196.886 215.105C197.364 215.105 197.747 215.009 198.034 214.818C198.326 214.622 198.472 214.362 198.472 214.038ZM204.453 216.137C203.451 216.137 202.635 215.809 202.006 215.152C201.377 214.492 201.062 213.61 201.062 212.507V212.275C201.062 211.541 201.201 210.887 201.479 210.313C201.762 209.734 202.154 209.283 202.655 208.959C203.161 208.631 203.708 208.467 204.296 208.467C205.257 208.467 206.005 208.784 206.538 209.417C207.071 210.051 207.338 210.957 207.338 212.138V212.664H202.327C202.345 213.393 202.557 213.984 202.963 214.435C203.373 214.881 203.893 215.105 204.521 215.105C204.968 215.105 205.346 215.013 205.656 214.831C205.966 214.649 206.237 214.407 206.47 214.107L207.242 214.708C206.622 215.661 205.693 216.137 204.453 216.137ZM204.296 209.506C203.785 209.506 203.357 209.693 203.011 210.067C202.664 210.436 202.45 210.955 202.368 211.625H206.073V211.529C206.037 210.887 205.864 210.39 205.554 210.039C205.244 209.684 204.825 209.506 204.296 209.506ZM213.374 215.269C212.882 215.847 212.16 216.137 211.207 216.137C210.419 216.137 209.817 215.909 209.402 215.453C208.992 214.993 208.785 214.314 208.78 213.416V208.604H210.045V213.382C210.045 214.503 210.501 215.064 211.412 215.064C212.378 215.064 213.021 214.704 213.34 213.984V208.604H214.604V216H213.401L213.374 215.269ZM220.839 214.038C220.839 213.696 220.709 213.432 220.449 213.245C220.194 213.054 219.745 212.89 219.103 212.753C218.465 212.616 217.956 212.452 217.578 212.261C217.204 212.069 216.926 211.842 216.744 211.577C216.566 211.313 216.478 210.998 216.478 210.634C216.478 210.028 216.733 209.515 217.243 209.096C217.758 208.677 218.414 208.467 219.212 208.467C220.05 208.467 220.729 208.683 221.249 209.116C221.773 209.549 222.035 210.103 222.035 210.777H220.764C220.764 210.431 220.616 210.133 220.319 209.882C220.028 209.631 219.659 209.506 219.212 209.506C218.752 209.506 218.392 209.606 218.132 209.807C217.872 210.007 217.742 210.269 217.742 210.593C217.742 210.898 217.863 211.128 218.104 211.283C218.346 211.438 218.781 211.586 219.41 211.728C220.044 211.869 220.556 212.038 220.948 212.234C221.34 212.429 221.63 212.666 221.816 212.944C222.008 213.218 222.104 213.553 222.104 213.949C222.104 214.61 221.839 215.141 221.311 215.542C220.782 215.939 220.096 216.137 219.253 216.137C218.66 216.137 218.136 216.032 217.681 215.822C217.225 215.613 216.867 215.321 216.607 214.947C216.352 214.569 216.225 214.161 216.225 213.724H217.489C217.512 214.148 217.681 214.485 217.995 214.735C218.314 214.982 218.733 215.105 219.253 215.105C219.731 215.105 220.114 215.009 220.401 214.818C220.693 214.622 220.839 214.362 220.839 214.038ZM231.79 216C231.717 215.854 231.658 215.595 231.612 215.221C231.024 215.832 230.323 216.137 229.507 216.137C228.778 216.137 228.178 215.932 227.709 215.522C227.244 215.107 227.012 214.583 227.012 213.949C227.012 213.179 227.303 212.582 227.887 212.158C228.475 211.73 229.299 211.516 230.361 211.516H231.592V210.935C231.592 210.493 231.46 210.142 231.195 209.882C230.931 209.618 230.541 209.485 230.026 209.485C229.575 209.485 229.197 209.599 228.892 209.827C228.586 210.055 228.434 210.331 228.434 210.654H227.162C227.162 210.285 227.292 209.93 227.552 209.588C227.816 209.242 228.172 208.968 228.618 208.768C229.069 208.567 229.564 208.467 230.102 208.467C230.954 208.467 231.621 208.681 232.104 209.109C232.588 209.533 232.838 210.119 232.856 210.866V214.271C232.856 214.95 232.943 215.49 233.116 215.891V216H231.79ZM229.691 215.036C230.088 215.036 230.464 214.934 230.819 214.729C231.175 214.524 231.432 214.257 231.592 213.929V212.411H230.601C229.051 212.411 228.276 212.865 228.276 213.772C228.276 214.168 228.409 214.478 228.673 214.701C228.937 214.925 229.277 215.036 229.691 215.036ZM236.028 208.604L236.062 209.424C236.605 208.786 237.336 208.467 238.257 208.467C239.291 208.467 239.995 208.863 240.369 209.656C240.615 209.301 240.934 209.014 241.326 208.795C241.723 208.576 242.19 208.467 242.728 208.467C244.35 208.467 245.175 209.326 245.202 211.044V216H243.938V211.119C243.938 210.591 243.817 210.196 243.575 209.937C243.334 209.672 242.928 209.54 242.358 209.54C241.889 209.54 241.499 209.681 241.189 209.964C240.88 210.242 240.7 210.618 240.649 211.092V216H239.378V211.153C239.378 210.078 238.852 209.54 237.799 209.54C236.969 209.54 236.402 209.893 236.097 210.6V216H234.832V208.604H236.028ZM248.49 216H247.226V208.604H248.49V216ZM247.123 206.642C247.123 206.437 247.185 206.263 247.308 206.122C247.435 205.981 247.622 205.91 247.868 205.91C248.114 205.91 248.301 205.981 248.429 206.122C248.556 206.263 248.62 206.437 248.62 206.642C248.62 206.847 248.556 207.018 248.429 207.154C248.301 207.291 248.114 207.359 247.868 207.359C247.622 207.359 247.435 207.291 247.308 207.154C247.185 207.018 247.123 206.847 247.123 206.642ZM250.22 212.24C250.22 211.087 250.486 210.171 251.02 209.492C251.553 208.809 252.259 208.467 253.139 208.467C254.041 208.467 254.745 208.786 255.251 209.424L255.312 208.604H256.468V215.822C256.468 216.779 256.183 217.534 255.613 218.085C255.048 218.637 254.287 218.912 253.33 218.912C252.797 218.912 252.275 218.798 251.765 218.57C251.254 218.343 250.865 218.03 250.596 217.634L251.252 216.875C251.794 217.545 252.457 217.88 253.241 217.88C253.856 217.88 254.335 217.707 254.677 217.36C255.023 217.014 255.196 216.526 255.196 215.898V215.262C254.69 215.845 254 216.137 253.125 216.137C252.259 216.137 251.557 215.788 251.02 215.091C250.486 214.394 250.22 213.443 250.22 212.24ZM251.491 212.384C251.491 213.218 251.662 213.874 252.004 214.353C252.346 214.827 252.824 215.064 253.439 215.064C254.237 215.064 254.823 214.701 255.196 213.977V210.6C254.809 209.893 254.228 209.54 253.453 209.54C252.838 209.54 252.357 209.779 252.011 210.258C251.664 210.736 251.491 211.445 251.491 212.384ZM258.047 212.234C258.047 211.509 258.188 210.857 258.471 210.278C258.758 209.7 259.154 209.253 259.66 208.939C260.171 208.624 260.752 208.467 261.403 208.467C262.41 208.467 263.224 208.816 263.844 209.513C264.468 210.21 264.78 211.137 264.78 212.295V212.384C264.78 213.104 264.641 213.751 264.363 214.325C264.09 214.895 263.696 215.339 263.181 215.658C262.67 215.977 262.082 216.137 261.417 216.137C260.414 216.137 259.601 215.788 258.977 215.091C258.357 214.394 258.047 213.471 258.047 212.322V212.234ZM259.318 212.384C259.318 213.204 259.507 213.863 259.886 214.359C260.269 214.856 260.779 215.105 261.417 215.105C262.06 215.105 262.57 214.854 262.948 214.353C263.326 213.847 263.516 213.14 263.516 212.234C263.516 211.422 263.322 210.766 262.935 210.265C262.552 209.759 262.041 209.506 261.403 209.506C260.779 209.506 260.275 209.754 259.893 210.251C259.51 210.748 259.318 211.459 259.318 212.384ZM270.673 214.038C270.673 213.696 270.543 213.432 270.283 213.245C270.028 213.054 269.579 212.89 268.937 212.753C268.299 212.616 267.79 212.452 267.412 212.261C267.038 212.069 266.76 211.842 266.578 211.577C266.4 211.313 266.312 210.998 266.312 210.634C266.312 210.028 266.567 209.515 267.077 209.096C267.592 208.677 268.248 208.467 269.046 208.467C269.884 208.467 270.563 208.683 271.083 209.116C271.607 209.549 271.869 210.103 271.869 210.777H270.598C270.598 210.431 270.45 210.133 270.153 209.882C269.862 209.631 269.493 209.506 269.046 209.506C268.586 209.506 268.226 209.606 267.966 209.807C267.706 210.007 267.576 210.269 267.576 210.593C267.576 210.898 267.697 211.128 267.938 211.283C268.18 211.438 268.615 211.586 269.244 211.728C269.878 211.869 270.39 212.038 270.782 212.234C271.174 212.429 271.464 212.666 271.65 212.944C271.842 213.218 271.938 213.553 271.938 213.949C271.938 214.61 271.673 215.141 271.145 215.542C270.616 215.939 269.93 216.137 269.087 216.137C268.494 216.137 267.97 216.032 267.515 215.822C267.059 215.613 266.701 215.321 266.441 214.947C266.186 214.569 266.059 214.161 266.059 213.724H267.323C267.346 214.148 267.515 214.485 267.829 214.735C268.148 214.982 268.567 215.105 269.087 215.105C269.565 215.105 269.948 215.009 270.235 214.818C270.527 214.622 270.673 214.362 270.673 214.038ZM280.127 216.137C279.124 216.137 278.309 215.809 277.68 215.152C277.051 214.492 276.736 213.61 276.736 212.507V212.275C276.736 211.541 276.875 210.887 277.153 210.313C277.436 209.734 277.828 209.283 278.329 208.959C278.835 208.631 279.382 208.467 279.97 208.467C280.931 208.467 281.679 208.784 282.212 209.417C282.745 210.051 283.012 210.957 283.012 212.138V212.664H278.001C278.019 213.393 278.231 213.984 278.637 214.435C279.047 214.881 279.566 215.105 280.195 215.105C280.642 215.105 281.02 215.013 281.33 214.831C281.64 214.649 281.911 214.407 282.144 214.107L282.916 214.708C282.296 215.661 281.367 216.137 280.127 216.137ZM279.97 209.506C279.459 209.506 279.031 209.693 278.685 210.067C278.338 210.436 278.124 210.955 278.042 211.625H281.747V211.529C281.711 210.887 281.537 210.39 281.228 210.039C280.918 209.684 280.498 209.506 279.97 209.506ZM47.4658 236.105C47.917 236.105 48.3112 235.968 48.6484 235.694C48.9857 235.421 49.1725 235.079 49.209 234.669H50.4053C50.3825 235.093 50.2367 235.496 49.9678 235.879C49.6989 236.262 49.3389 236.567 48.8877 236.795C48.4411 237.023 47.9671 237.137 47.4658 237.137C46.4587 237.137 45.6566 236.802 45.0596 236.132C44.4671 235.457 44.1709 234.537 44.1709 233.37V233.158C44.1709 232.438 44.3031 231.798 44.5674 231.237C44.8317 230.677 45.21 230.242 45.7021 229.932C46.1989 229.622 46.7845 229.467 47.459 229.467C48.2884 229.467 48.9766 229.715 49.5234 230.212C50.0749 230.709 50.3688 231.354 50.4053 232.147H49.209C49.1725 231.668 48.9902 231.276 48.6621 230.971C48.3385 230.661 47.9375 230.506 47.459 230.506C46.8164 230.506 46.3174 230.738 45.9619 231.203C45.611 231.664 45.4355 232.331 45.4355 233.206V233.445C45.4355 234.298 45.611 234.954 45.9619 235.414C46.3128 235.874 46.8141 236.105 47.4658 236.105ZM51.4922 233.234C51.4922 232.509 51.6335 231.857 51.916 231.278C52.2031 230.7 52.5996 230.253 53.1055 229.939C53.6159 229.624 54.1969 229.467 54.8486 229.467C55.8558 229.467 56.6693 229.816 57.2891 230.513C57.9134 231.21 58.2256 232.137 58.2256 233.295V233.384C58.2256 234.104 58.0866 234.751 57.8086 235.325C57.5352 235.895 57.141 236.339 56.626 236.658C56.1156 236.977 55.5277 237.137 54.8623 237.137C53.8597 237.137 53.0462 236.788 52.4219 236.091C51.8021 235.394 51.4922 234.471 51.4922 233.322V233.234ZM52.7637 233.384C52.7637 234.204 52.9528 234.863 53.3311 235.359C53.7139 235.856 54.2243 236.105 54.8623 236.105C55.5049 236.105 56.0153 235.854 56.3936 235.353C56.7718 234.847 56.9609 234.14 56.9609 233.234C56.9609 232.422 56.7673 231.766 56.3799 231.265C55.9971 230.759 55.4867 230.506 54.8486 230.506C54.2243 230.506 53.7207 230.754 53.3379 231.251C52.9551 231.748 52.7637 232.459 52.7637 233.384ZM61.001 229.604L61.0352 230.424C61.5775 229.786 62.3089 229.467 63.2295 229.467C64.264 229.467 64.9681 229.863 65.3418 230.656C65.5879 230.301 65.9069 230.014 66.2988 229.795C66.6953 229.576 67.1624 229.467 67.7002 229.467C69.3226 229.467 70.1475 230.326 70.1748 232.044V237H68.9102V232.119C68.9102 231.591 68.7894 231.196 68.5479 230.937C68.3063 230.672 67.9007 230.54 67.3311 230.54C66.8617 230.54 66.472 230.681 66.1621 230.964C65.8522 231.242 65.6722 231.618 65.6221 232.092V237H64.3506V232.153C64.3506 231.078 63.8242 230.54 62.7715 230.54C61.9421 230.54 61.3747 230.893 61.0693 231.6V237H59.8047V229.604H61.001ZM75.1582 237.137C74.1556 237.137 73.3398 236.809 72.7109 236.152C72.082 235.492 71.7676 234.61 71.7676 233.507V233.275C71.7676 232.541 71.9066 231.887 72.1846 231.313C72.4671 230.734 72.859 230.283 73.3604 229.959C73.8662 229.631 74.4131 229.467 75.001 229.467C75.9626 229.467 76.71 229.784 77.2432 230.417C77.7764 231.051 78.043 231.957 78.043 233.138V233.664H73.0322C73.0505 234.393 73.2624 234.984 73.668 235.435C74.0781 235.881 74.5977 236.105 75.2266 236.105C75.6732 236.105 76.0514 236.013 76.3613 235.831C76.6712 235.649 76.9424 235.407 77.1748 235.107L77.9473 235.708C77.3275 236.661 76.3978 237.137 75.1582 237.137ZM75.001 230.506C74.4906 230.506 74.0622 230.693 73.7158 231.067C73.3695 231.436 73.1553 231.955 73.0732 232.625H76.7783V232.529C76.7419 231.887 76.5687 231.39 76.2588 231.039C75.9489 230.684 75.5296 230.506 75.001 230.506ZM82.4795 236.105C82.9307 236.105 83.3249 235.968 83.6621 235.694C83.9993 235.421 84.1862 235.079 84.2227 234.669H85.4189C85.3962 235.093 85.2503 235.496 84.9814 235.879C84.7126 236.262 84.3525 236.567 83.9014 236.795C83.4548 237.023 82.9808 237.137 82.4795 237.137C81.4723 237.137 80.6702 236.802 80.0732 236.132C79.4808 235.457 79.1846 234.537 79.1846 233.37V233.158C79.1846 232.438 79.3167 231.798 79.5811 231.237C79.8454 230.677 80.2236 230.242 80.7158 229.932C81.2126 229.622 81.7982 229.467 82.4727 229.467C83.3021 229.467 83.9902 229.715 84.5371 230.212C85.0885 230.709 85.3825 231.354 85.4189 232.147H84.2227C84.1862 231.668 84.0039 231.276 83.6758 230.971C83.3522 230.661 82.9512 230.506 82.4727 230.506C81.8301 230.506 81.3311 230.738 80.9756 231.203C80.6247 231.664 80.4492 232.331 80.4492 233.206V233.445C80.4492 234.298 80.6247 234.954 80.9756 235.414C81.3265 235.874 81.8278 236.105 82.4795 236.105ZM89.9102 237.137C88.9076 237.137 88.0918 236.809 87.4629 236.152C86.834 235.492 86.5195 234.61 86.5195 233.507V233.275C86.5195 232.541 86.6585 231.887 86.9365 231.313C87.2191 230.734 87.611 230.283 88.1123 229.959C88.6182 229.631 89.165 229.467 89.7529 229.467C90.7145 229.467 91.4619 229.784 91.9951 230.417C92.5283 231.051 92.7949 231.957 92.7949 233.138V233.664H87.7842C87.8024 234.393 88.0143 234.984 88.4199 235.435C88.8301 235.881 89.3496 236.105 89.9785 236.105C90.4251 236.105 90.8034 236.013 91.1133 235.831C91.4232 235.649 91.6943 235.407 91.9268 235.107L92.6992 235.708C92.0794 236.661 91.1497 237.137 89.9102 237.137ZM89.7529 230.506C89.2425 230.506 88.8141 230.693 88.4678 231.067C88.1214 231.436 87.9072 231.955 87.8252 232.625H91.5303V232.529C91.4938 231.887 91.3206 231.39 91.0107 231.039C90.7008 230.684 90.2816 230.506 89.7529 230.506ZM102.304 237C102.231 236.854 102.172 236.595 102.126 236.221C101.538 236.832 100.836 237.137 100.021 237.137C99.2913 237.137 98.6921 236.932 98.2227 236.522C97.7578 236.107 97.5254 235.583 97.5254 234.949C97.5254 234.179 97.8171 233.582 98.4004 233.158C98.9883 232.73 99.8132 232.516 100.875 232.516H102.105V231.935C102.105 231.493 101.973 231.142 101.709 230.882C101.445 230.618 101.055 230.485 100.54 230.485C100.089 230.485 99.7106 230.599 99.4053 230.827C99.0999 231.055 98.9473 231.331 98.9473 231.654H97.6758C97.6758 231.285 97.8057 230.93 98.0654 230.588C98.3298 230.242 98.6852 229.968 99.1318 229.768C99.583 229.567 100.077 229.467 100.615 229.467C101.467 229.467 102.135 229.681 102.618 230.109C103.101 230.533 103.352 231.119 103.37 231.866V235.271C103.37 235.95 103.457 236.49 103.63 236.891V237H102.304ZM100.205 236.036C100.602 236.036 100.978 235.934 101.333 235.729C101.688 235.524 101.946 235.257 102.105 234.929V233.411H101.114C99.5648 233.411 98.79 233.865 98.79 234.772C98.79 235.168 98.9222 235.478 99.1865 235.701C99.4508 235.925 99.7904 236.036 100.205 236.036ZM112.4 230.738C112.209 230.707 112.002 230.691 111.778 230.691C110.949 230.691 110.386 231.044 110.09 231.75V237H108.825V229.604H110.056L110.076 230.458C110.491 229.797 111.079 229.467 111.84 229.467C112.086 229.467 112.273 229.499 112.4 229.563V230.738ZM116.502 237.137C115.499 237.137 114.684 236.809 114.055 236.152C113.426 235.492 113.111 234.61 113.111 233.507V233.275C113.111 232.541 113.25 231.887 113.528 231.313C113.811 230.734 114.203 230.283 114.704 229.959C115.21 229.631 115.757 229.467 116.345 229.467C117.306 229.467 118.054 229.784 118.587 230.417C119.12 231.051 119.387 231.957 119.387 233.138V233.664H114.376C114.394 234.393 114.606 234.984 115.012 235.435C115.422 235.881 115.941 236.105 116.57 236.105C117.017 236.105 117.395 236.013 117.705 235.831C118.015 235.649 118.286 235.407 118.519 235.107L119.291 235.708C118.671 236.661 117.742 237.137 116.502 237.137ZM116.345 230.506C115.834 230.506 115.406 230.693 115.06 231.067C114.713 231.436 114.499 231.955 114.417 232.625H118.122V232.529C118.086 231.887 117.912 231.39 117.603 231.039C117.293 230.684 116.873 230.506 116.345 230.506ZM125.163 235.038C125.163 234.696 125.033 234.432 124.773 234.245C124.518 234.054 124.069 233.89 123.427 233.753C122.789 233.616 122.281 233.452 121.902 233.261C121.529 233.069 121.251 232.842 121.068 232.577C120.891 232.313 120.802 231.998 120.802 231.634C120.802 231.028 121.057 230.515 121.567 230.096C122.082 229.677 122.739 229.467 123.536 229.467C124.375 229.467 125.054 229.683 125.573 230.116C126.097 230.549 126.359 231.103 126.359 231.777H125.088C125.088 231.431 124.94 231.133 124.644 230.882C124.352 230.631 123.983 230.506 123.536 230.506C123.076 230.506 122.716 230.606 122.456 230.807C122.196 231.007 122.066 231.269 122.066 231.593C122.066 231.898 122.187 232.128 122.429 232.283C122.67 232.438 123.105 232.586 123.734 232.728C124.368 232.869 124.881 233.038 125.272 233.234C125.664 233.429 125.954 233.666 126.141 233.944C126.332 234.218 126.428 234.553 126.428 234.949C126.428 235.61 126.163 236.141 125.635 236.542C125.106 236.939 124.42 237.137 123.577 237.137C122.985 237.137 122.461 237.032 122.005 236.822C121.549 236.613 121.191 236.321 120.932 235.947C120.676 235.569 120.549 235.161 120.549 234.724H121.813C121.836 235.148 122.005 235.485 122.319 235.735C122.638 235.982 123.058 236.105 123.577 236.105C124.056 236.105 124.438 236.009 124.726 235.818C125.017 235.622 125.163 235.362 125.163 235.038ZM134.323 233.384C134.323 234.51 134.066 235.416 133.551 236.105C133.036 236.793 132.339 237.137 131.459 237.137C130.561 237.137 129.855 236.852 129.34 236.282V239.844H128.075V229.604H129.23L129.292 230.424C129.807 229.786 130.522 229.467 131.438 229.467C132.327 229.467 133.029 229.802 133.544 230.472C134.063 231.142 134.323 232.074 134.323 233.268V233.384ZM133.059 233.24C133.059 232.406 132.881 231.748 132.525 231.265C132.17 230.782 131.682 230.54 131.062 230.54C130.297 230.54 129.723 230.88 129.34 231.559V235.093C129.718 235.767 130.297 236.105 131.076 236.105C131.682 236.105 132.163 235.865 132.519 235.387C132.879 234.904 133.059 234.188 133.059 233.24ZM135.602 233.234C135.602 232.509 135.743 231.857 136.025 231.278C136.312 230.7 136.709 230.253 137.215 229.939C137.725 229.624 138.306 229.467 138.958 229.467C139.965 229.467 140.779 229.816 141.398 230.513C142.023 231.21 142.335 232.137 142.335 233.295V233.384C142.335 234.104 142.196 234.751 141.918 235.325C141.645 235.895 141.25 236.339 140.735 236.658C140.225 236.977 139.637 237.137 138.972 237.137C137.969 237.137 137.156 236.788 136.531 236.091C135.911 235.394 135.602 234.471 135.602 233.322V233.234ZM136.873 233.384C136.873 234.204 137.062 234.863 137.44 235.359C137.823 235.856 138.334 236.105 138.972 236.105C139.614 236.105 140.125 235.854 140.503 235.353C140.881 234.847 141.07 234.14 141.07 233.234C141.07 232.422 140.877 231.766 140.489 231.265C140.106 230.759 139.596 230.506 138.958 230.506C138.334 230.506 137.83 230.754 137.447 231.251C137.064 231.748 136.873 232.459 136.873 233.384ZM145.117 229.604L145.158 230.533C145.723 229.822 146.462 229.467 147.373 229.467C148.936 229.467 149.725 230.349 149.738 232.112V237H148.474V232.106C148.469 231.572 148.346 231.178 148.104 230.923C147.868 230.668 147.496 230.54 146.99 230.54C146.58 230.54 146.22 230.65 145.91 230.868C145.6 231.087 145.359 231.374 145.186 231.73V237H143.921V229.604H145.117ZM151.338 233.24C151.338 232.106 151.607 231.194 152.145 230.506C152.682 229.813 153.386 229.467 154.257 229.467C155.123 229.467 155.809 229.763 156.314 230.356V226.5H157.579V237H156.417L156.355 236.207C155.85 236.827 155.146 237.137 154.243 237.137C153.386 237.137 152.687 236.786 152.145 236.084C151.607 235.382 151.338 234.466 151.338 233.336V233.24ZM152.603 233.384C152.603 234.222 152.776 234.879 153.122 235.353C153.468 235.827 153.947 236.064 154.558 236.064C155.36 236.064 155.945 235.704 156.314 234.984V231.586C155.936 230.889 155.355 230.54 154.571 230.54C153.951 230.54 153.468 230.779 153.122 231.258C152.776 231.736 152.603 232.445 152.603 233.384ZM162.617 237.137C161.615 237.137 160.799 236.809 160.17 236.152C159.541 235.492 159.227 234.61 159.227 233.507V233.275C159.227 232.541 159.366 231.887 159.644 231.313C159.926 230.734 160.318 230.283 160.819 229.959C161.325 229.631 161.872 229.467 162.46 229.467C163.422 229.467 164.169 229.784 164.702 230.417C165.235 231.051 165.502 231.957 165.502 233.138V233.664H160.491C160.509 234.393 160.721 234.984 161.127 235.435C161.537 235.881 162.057 236.105 162.686 236.105C163.132 236.105 163.51 236.013 163.82 235.831C164.13 235.649 164.401 235.407 164.634 235.107L165.406 235.708C164.786 236.661 163.857 237.137 162.617 237.137ZM162.46 230.506C161.95 230.506 161.521 230.693 161.175 231.067C160.828 231.436 160.614 231.955 160.532 232.625H164.237V232.529C164.201 231.887 164.028 231.39 163.718 231.039C163.408 230.684 162.989 230.506 162.46 230.506ZM170.547 230.738C170.355 230.707 170.148 230.691 169.925 230.691C169.095 230.691 168.533 231.044 168.236 231.75V237H166.972V229.604H168.202L168.223 230.458C168.637 229.797 169.225 229.467 169.986 229.467C170.232 229.467 170.419 229.499 170.547 229.563V230.738ZM181.437 233.384C181.437 234.51 181.179 235.416 180.664 236.105C180.149 236.793 179.452 237.137 178.572 237.137C177.674 237.137 176.968 236.852 176.453 236.282V239.844H175.188V229.604H176.344L176.405 230.424C176.92 229.786 177.636 229.467 178.552 229.467C179.44 229.467 180.142 229.802 180.657 230.472C181.177 231.142 181.437 232.074 181.437 233.268V233.384ZM180.172 233.24C180.172 232.406 179.994 231.748 179.639 231.265C179.283 230.782 178.796 230.54 178.176 230.54C177.41 230.54 176.836 230.88 176.453 231.559V235.093C176.831 235.767 177.41 236.105 178.189 236.105C178.796 236.105 179.276 235.865 179.632 235.387C179.992 234.904 180.172 234.188 180.172 233.24ZM186.119 237.137C185.117 237.137 184.301 236.809 183.672 236.152C183.043 235.492 182.729 234.61 182.729 233.507V233.275C182.729 232.541 182.868 231.887 183.146 231.313C183.428 230.734 183.82 230.283 184.321 229.959C184.827 229.631 185.374 229.467 185.962 229.467C186.924 229.467 187.671 229.784 188.204 230.417C188.737 231.051 189.004 231.957 189.004 233.138V233.664H183.993C184.011 234.393 184.223 234.984 184.629 235.435C185.039 235.881 185.559 236.105 186.188 236.105C186.634 236.105 187.012 236.013 187.322 235.831C187.632 235.649 187.903 235.407 188.136 235.107L188.908 235.708C188.288 236.661 187.359 237.137 186.119 237.137ZM185.962 230.506C185.451 230.506 185.023 230.693 184.677 231.067C184.33 231.436 184.116 231.955 184.034 232.625H187.739V232.529C187.703 231.887 187.53 231.39 187.22 231.039C186.91 230.684 186.491 230.506 185.962 230.506ZM194.049 230.738C193.857 230.707 193.65 230.691 193.427 230.691C192.597 230.691 192.035 231.044 191.738 231.75V237H190.474V229.604H191.704L191.725 230.458C192.139 229.797 192.727 229.467 193.488 229.467C193.734 229.467 193.921 229.499 194.049 229.563V230.738ZM194.78 233.24C194.78 232.087 195.047 231.171 195.58 230.492C196.113 229.809 196.82 229.467 197.699 229.467C198.602 229.467 199.306 229.786 199.812 230.424L199.873 229.604H201.028V236.822C201.028 237.779 200.743 238.534 200.174 239.085C199.609 239.637 198.848 239.912 197.891 239.912C197.357 239.912 196.836 239.798 196.325 239.57C195.815 239.343 195.425 239.03 195.156 238.634L195.812 237.875C196.355 238.545 197.018 238.88 197.802 238.88C198.417 238.88 198.896 238.707 199.237 238.36C199.584 238.014 199.757 237.526 199.757 236.898V236.262C199.251 236.845 198.561 237.137 197.686 237.137C196.82 237.137 196.118 236.788 195.58 236.091C195.047 235.394 194.78 234.443 194.78 233.24ZM196.052 233.384C196.052 234.218 196.223 234.874 196.564 235.353C196.906 235.827 197.385 236.064 198 236.064C198.798 236.064 199.383 235.701 199.757 234.977V231.6C199.369 230.893 198.788 230.54 198.014 230.54C197.398 230.54 196.918 230.779 196.571 231.258C196.225 231.736 196.052 232.445 196.052 233.384ZM207.509 236.269C207.017 236.847 206.294 237.137 205.342 237.137C204.553 237.137 203.952 236.909 203.537 236.453C203.127 235.993 202.92 235.314 202.915 234.416V229.604H204.18V234.382C204.18 235.503 204.635 236.064 205.547 236.064C206.513 236.064 207.156 235.704 207.475 234.984V229.604H208.739V237H207.536L207.509 236.269ZM211.863 229.604L211.904 230.533C212.469 229.822 213.208 229.467 214.119 229.467C215.682 229.467 216.471 230.349 216.484 232.112V237H215.22V232.106C215.215 231.572 215.092 231.178 214.851 230.923C214.614 230.668 214.242 230.54 213.736 230.54C213.326 230.54 212.966 230.65 212.656 230.868C212.346 231.087 212.105 231.374 211.932 231.73V237H210.667V229.604H211.863ZM220.107 227.813V229.604H221.488V230.581H220.107V235.168C220.107 235.464 220.169 235.688 220.292 235.838C220.415 235.984 220.625 236.057 220.921 236.057C221.067 236.057 221.267 236.029 221.522 235.975V237C221.19 237.091 220.866 237.137 220.552 237.137C219.987 237.137 219.561 236.966 219.273 236.624C218.986 236.282 218.843 235.797 218.843 235.168V230.581H217.496V229.604H218.843V227.813H220.107ZM227.538 237C227.465 236.854 227.406 236.595 227.36 236.221C226.772 236.832 226.071 237.137 225.255 237.137C224.526 237.137 223.926 236.932 223.457 236.522C222.992 236.107 222.76 235.583 222.76 234.949C222.76 234.179 223.051 233.582 223.635 233.158C224.223 232.73 225.048 232.516 226.109 232.516H227.34V231.935C227.34 231.493 227.208 231.142 226.943 230.882C226.679 230.618 226.289 230.485 225.774 230.485C225.323 230.485 224.945 230.599 224.64 230.827C224.334 231.055 224.182 231.331 224.182 231.654H222.91C222.91 231.285 223.04 230.93 223.3 230.588C223.564 230.242 223.92 229.968 224.366 229.768C224.817 229.567 225.312 229.467 225.85 229.467C226.702 229.467 227.369 229.681 227.853 230.109C228.336 230.533 228.586 231.119 228.604 231.866V235.271C228.604 235.95 228.691 236.49 228.864 236.891V237H227.538ZM225.439 236.036C225.836 236.036 226.212 235.934 226.567 235.729C226.923 235.524 227.18 235.257 227.34 234.929V233.411H226.349C224.799 233.411 224.024 233.865 224.024 234.772C224.024 235.168 224.157 235.478 224.421 235.701C224.685 235.925 225.025 236.036 225.439 236.036ZM234.894 235.038C234.894 234.696 234.764 234.432 234.504 234.245C234.249 234.054 233.8 233.89 233.157 233.753C232.519 233.616 232.011 233.452 231.633 233.261C231.259 233.069 230.981 232.842 230.799 232.577C230.621 232.313 230.532 231.998 230.532 231.634C230.532 231.028 230.787 230.515 231.298 230.096C231.813 229.677 232.469 229.467 233.267 229.467C234.105 229.467 234.784 229.683 235.304 230.116C235.828 230.549 236.09 231.103 236.09 231.777H234.818C234.818 231.431 234.67 231.133 234.374 230.882C234.082 230.631 233.713 230.506 233.267 230.506C232.806 230.506 232.446 230.606 232.187 230.807C231.927 231.007 231.797 231.269 231.797 231.593C231.797 231.898 231.918 232.128 232.159 232.283C232.401 232.438 232.836 232.586 233.465 232.728C234.098 232.869 234.611 233.038 235.003 233.234C235.395 233.429 235.684 233.666 235.871 233.944C236.062 234.218 236.158 234.553 236.158 234.949C236.158 235.61 235.894 236.141 235.365 236.542C234.837 236.939 234.151 237.137 233.308 237.137C232.715 237.137 232.191 237.032 231.735 236.822C231.28 236.613 230.922 236.321 230.662 235.947C230.407 235.569 230.279 235.161 230.279 234.724H231.544C231.567 235.148 231.735 235.485 232.05 235.735C232.369 235.982 232.788 236.105 233.308 236.105C233.786 236.105 234.169 236.009 234.456 235.818C234.748 235.622 234.894 235.362 234.894 235.038ZM239.221 234.191H238.079L237.99 227.047H239.316L239.221 234.191ZM237.942 236.364C237.942 236.159 238.004 235.988 238.127 235.852C238.255 235.71 238.441 235.64 238.688 235.64C238.934 235.64 239.12 235.71 239.248 235.852C239.376 235.988 239.439 236.159 239.439 236.364C239.439 236.569 239.376 236.74 239.248 236.877C239.12 237.009 238.934 237.075 238.688 237.075C238.441 237.075 238.255 237.009 238.127 236.877C238.004 236.74 237.942 236.569 237.942 236.364Z" fill="#F8F8F8"/>
<path d="M16.4734 186H13.9534L8.24735 177.378V186H5.72735V173.418H8.24735L13.9534 182.058V173.418H16.4734V186ZM28.2337 180.798C28.2337 181.158 28.2097 181.482 28.1617 181.77H20.8717C20.9317 182.49 21.1837 183.054 21.6277 183.462C22.0717 183.87 22.6177 184.074 23.2657 184.074C24.2017 184.074 24.8677 183.672 25.2637 182.868H27.9817C27.6937 183.828 27.1417 184.62 26.3257 185.244C25.5097 185.856 24.5077 186.162 23.3197 186.162C22.3597 186.162 21.4957 185.952 20.7277 185.532C19.9717 185.1 19.3777 184.494 18.9457 183.714C18.5257 182.934 18.3157 182.034 18.3157 181.014C18.3157 179.982 18.5257 179.076 18.9457 178.296C19.3657 177.516 19.9537 176.916 20.7097 176.496C21.4657 176.076 22.3357 175.866 23.3197 175.866C24.2677 175.866 25.1137 176.07 25.8577 176.478C26.6137 176.886 27.1957 177.468 27.6037 178.224C28.0237 178.968 28.2337 179.826 28.2337 180.798ZM25.6237 180.078C25.6117 179.43 25.3777 178.914 24.9217 178.53C24.4657 178.134 23.9077 177.936 23.2477 177.936C22.6237 177.936 22.0957 178.128 21.6637 178.512C21.2437 178.884 20.9857 179.406 20.8897 180.078H25.6237ZM35.5991 175.884C36.7871 175.884 37.7471 176.262 38.4791 177.018C39.2111 177.762 39.5771 178.806 39.5771 180.15V186H37.0571V180.492C37.0571 179.7 36.8591 179.094 36.4631 178.674C36.0671 178.242 35.5271 178.026 34.8431 178.026C34.1471 178.026 33.5951 178.242 33.1871 178.674C32.7911 179.094 32.5931 179.7 32.5931 180.492V186H30.0731V176.028H32.5931V177.27C32.9291 176.838 33.3551 176.502 33.8711 176.262C34.3991 176.01 34.9751 175.884 35.5991 175.884ZM47.5894 175.884C48.3454 175.884 49.0174 176.052 49.6054 176.388C50.1934 176.712 50.6494 177.198 50.9734 177.846C51.3094 178.482 51.4774 179.25 51.4774 180.15V186H48.9574V180.492C48.9574 179.7 48.7594 179.094 48.3634 178.674C47.9674 178.242 47.4274 178.026 46.7434 178.026C46.0474 178.026 45.4954 178.242 45.0874 178.674C44.6914 179.094 44.4934 179.7 44.4934 180.492V186H41.9734V172.68H44.4934V177.27C44.8174 176.838 45.2494 176.502 45.7894 176.262C46.3294 176.01 46.9294 175.884 47.5894 175.884ZM63.2878 176.028V186H60.7498V184.74C60.4258 185.172 59.9998 185.514 59.4718 185.766C58.9558 186.006 58.3918 186.126 57.7798 186.126C56.9998 186.126 56.3098 185.964 55.7098 185.64C55.1098 185.304 54.6358 184.818 54.2878 184.182C53.9518 183.534 53.7838 182.766 53.7838 181.878V176.028H56.3038V181.518C56.3038 182.31 56.5018 182.922 56.8978 183.354C57.2938 183.774 57.8338 183.984 58.5178 183.984C59.2138 183.984 59.7598 183.774 60.1558 183.354C60.5518 182.922 60.7498 182.31 60.7498 181.518V176.028H63.2878ZM78.1582 175.884C79.3822 175.884 80.3662 176.262 81.1102 177.018C81.8662 177.762 82.2442 178.806 82.2442 180.15V186H79.7242V180.492C79.7242 179.712 79.5262 179.118 79.1302 178.71C78.7342 178.29 78.1942 178.08 77.5102 178.08C76.8262 178.08 76.2802 178.29 75.8722 178.71C75.4762 179.118 75.2782 179.712 75.2782 180.492V186H72.7582V180.492C72.7582 179.712 72.5602 179.118 72.1642 178.71C71.7682 178.29 71.2282 178.08 70.5442 178.08C69.8482 178.08 69.2962 178.29 68.8882 178.71C68.4922 179.118 68.2942 179.712 68.2942 180.492V186H65.7742V176.028H68.2942V177.234C68.6182 176.814 69.0322 176.484 69.5362 176.244C70.0522 176.004 70.6162 175.884 71.2282 175.884C72.0082 175.884 72.7042 176.052 73.3162 176.388C73.9282 176.712 74.4022 177.18 74.7382 177.792C75.0622 177.216 75.5302 176.754 76.1422 176.406C76.7662 176.058 77.4382 175.884 78.1582 175.884ZM83.9876 180.978C83.9876 179.97 84.1856 179.076 84.5816 178.296C84.9896 177.516 85.5356 176.916 86.2196 176.496C86.9156 176.076 87.6896 175.866 88.5416 175.866C89.2856 175.866 89.9336 176.016 90.4856 176.316C91.0496 176.616 91.4996 176.994 91.8356 177.45V176.028H94.3736V186H91.8356V184.542C91.5116 185.01 91.0616 185.4 90.4856 185.712C89.9216 186.012 89.2676 186.162 88.5236 186.162C87.6836 186.162 86.9156 185.946 86.2196 185.514C85.5356 185.082 84.9896 184.476 84.5816 183.696C84.1856 182.904 83.9876 181.998 83.9876 180.978ZM91.8356 181.014C91.8356 180.402 91.7156 179.88 91.4756 179.448C91.2356 179.004 90.9116 178.668 90.5036 178.44C90.0956 178.2 89.6576 178.08 89.1896 178.08C88.7216 178.08 88.2896 178.194 87.8936 178.422C87.4976 178.65 87.1736 178.986 86.9216 179.43C86.6816 179.862 86.5616 180.378 86.5616 180.978C86.5616 181.578 86.6816 182.106 86.9216 182.562C87.1736 183.006 87.4976 183.348 87.8936 183.588C88.3016 183.828 88.7336 183.948 89.1896 183.948C89.6576 183.948 90.0956 183.834 90.5036 183.606C90.9116 183.366 91.2356 183.03 91.4756 182.598C91.7156 182.154 91.8356 181.626 91.8356 181.014ZM103.644 177.468C103.968 177.012 104.412 176.634 104.976 176.334C105.552 176.022 106.206 175.866 106.938 175.866C107.79 175.866 108.558 176.076 109.242 176.496C109.938 176.916 110.484 177.516 110.88 178.296C111.288 179.064 111.492 179.958 111.492 180.978C111.492 181.998 111.288 182.904 110.88 183.696C110.484 184.476 109.938 185.082 109.242 185.514C108.558 185.946 107.79 186.162 106.938 186.162C106.206 186.162 105.558 186.012 104.994 185.712C104.442 185.412 103.992 185.034 103.644 184.578V190.752H101.124V176.028H103.644V177.468ZM108.918 180.978C108.918 180.378 108.792 179.862 108.54 179.43C108.3 178.986 107.976 178.65 107.568 178.422C107.172 178.194 106.74 178.08 106.272 178.08C105.816 178.08 105.384 178.2 104.976 178.44C104.58 178.668 104.256 179.004 104.004 179.448C103.764 179.892 103.644 180.414 103.644 181.014C103.644 181.614 103.764 182.136 104.004 182.58C104.256 183.024 104.58 183.366 104.976 183.606C105.384 183.834 105.816 183.948 106.272 183.948C106.74 183.948 107.172 183.828 107.568 183.588C107.976 183.348 108.3 183.006 108.54 182.562C108.792 182.118 108.918 181.59 108.918 180.978ZM122.593 180.798C122.593 181.158 122.569 181.482 122.521 181.77H115.231C115.291 182.49 115.543 183.054 115.987 183.462C116.431 183.87 116.977 184.074 117.625 184.074C118.561 184.074 119.227 183.672 119.623 182.868H122.341C122.053 183.828 121.501 184.62 120.685 185.244C119.869 185.856 118.867 186.162 117.679 186.162C116.719 186.162 115.855 185.952 115.087 185.532C114.331 185.1 113.737 184.494 113.305 183.714C112.885 182.934 112.675 182.034 112.675 181.014C112.675 179.982 112.885 179.076 113.305 178.296C113.725 177.516 114.313 176.916 115.069 176.496C115.825 176.076 116.695 175.866 117.679 175.866C118.627 175.866 119.473 176.07 120.217 176.478C120.973 176.886 121.555 177.468 121.963 178.224C122.383 178.968 122.593 179.826 122.593 180.798ZM119.983 180.078C119.971 179.43 119.737 178.914 119.281 178.53C118.825 178.134 118.267 177.936 117.607 177.936C116.983 177.936 116.455 178.128 116.023 178.512C115.603 178.884 115.345 179.406 115.249 180.078H119.983ZM126.952 177.576C127.276 177.048 127.696 176.634 128.212 176.334C128.74 176.034 129.34 175.884 130.012 175.884V178.53H129.346C128.554 178.53 127.954 178.716 127.546 179.088C127.15 179.46 126.952 180.108 126.952 181.032V186H124.432V176.028H126.952V177.576ZM135.616 175.866C136.36 175.866 137.014 176.016 137.578 176.316C138.142 176.604 138.586 176.982 138.91 177.45V176.028H141.448V186.072C141.448 186.996 141.262 187.818 140.89 188.538C140.518 189.27 139.96 189.846 139.216 190.266C138.472 190.698 137.572 190.914 136.516 190.914C135.1 190.914 133.936 190.584 133.024 189.924C132.124 189.264 131.614 188.364 131.494 187.224H133.996C134.128 187.68 134.41 188.04 134.842 188.304C135.286 188.58 135.82 188.718 136.444 188.718C137.176 188.718 137.77 188.496 138.226 188.052C138.682 187.62 138.91 186.96 138.91 186.072V184.524C138.586 184.992 138.136 185.382 137.56 185.694C136.996 186.006 136.348 186.162 135.616 186.162C134.776 186.162 134.008 185.946 133.312 185.514C132.616 185.082 132.064 184.476 131.656 183.696C131.26 182.904 131.062 181.998 131.062 180.978C131.062 179.97 131.26 179.076 131.656 178.296C132.064 177.516 132.61 176.916 133.294 176.496C133.99 176.076 134.764 175.866 135.616 175.866ZM138.91 181.014C138.91 180.402 138.79 179.88 138.55 179.448C138.31 179.004 137.986 178.668 137.578 178.44C137.17 178.2 136.732 178.08 136.264 178.08C135.796 178.08 135.364 178.194 134.968 178.422C134.572 178.65 134.248 178.986 133.996 179.43C133.756 179.862 133.636 180.378 133.636 180.978C133.636 181.578 133.756 182.106 133.996 182.562C134.248 183.006 134.572 183.348 134.968 183.588C135.376 183.828 135.808 183.948 136.264 183.948C136.732 183.948 137.17 183.834 137.578 183.606C137.986 183.366 138.31 183.03 138.55 182.598C138.79 182.154 138.91 181.626 138.91 181.014ZM153.323 176.028V186H150.785V184.74C150.461 185.172 150.035 185.514 149.507 185.766C148.991 186.006 148.427 186.126 147.815 186.126C147.035 186.126 146.345 185.964 145.745 185.64C145.145 185.304 144.671 184.818 144.323 184.182C143.987 183.534 143.819 182.766 143.819 181.878V176.028H146.339V181.518C146.339 182.31 146.537 182.922 146.933 183.354C147.329 183.774 147.869 183.984 148.553 183.984C149.249 183.984 149.795 183.774 150.191 183.354C150.587 182.922 150.785 182.31 150.785 181.518V176.028H153.323ZM161.335 175.884C162.523 175.884 163.483 176.262 164.215 177.018C164.947 177.762 165.313 178.806 165.313 180.15V186H162.793V180.492C162.793 179.7 162.595 179.094 162.199 178.674C161.803 178.242 161.263 178.026 160.579 178.026C159.883 178.026 159.331 178.242 158.923 178.674C158.527 179.094 158.329 179.7 158.329 180.492V186H155.809V176.028H158.329V177.27C158.665 176.838 159.091 176.502 159.607 176.262C160.135 176.01 160.711 175.884 161.335 175.884ZM170.644 178.098V182.922C170.644 183.258 170.722 183.504 170.878 183.66C171.046 183.804 171.322 183.876 171.706 183.876H172.876V186H171.292C169.168 186 168.106 184.968 168.106 182.904V178.098H166.918V176.028H168.106V173.562H170.644V176.028H172.876V178.098H170.644ZM174.04 180.978C174.04 179.97 174.238 179.076 174.634 178.296C175.042 177.516 175.588 176.916 176.272 176.496C176.968 176.076 177.742 175.866 178.594 175.866C179.338 175.866 179.986 176.016 180.538 176.316C181.102 176.616 181.552 176.994 181.888 177.45V176.028H184.426V186H181.888V184.542C181.564 185.01 181.114 185.4 180.538 185.712C179.974 186.012 179.32 186.162 178.576 186.162C177.736 186.162 176.968 185.946 176.272 185.514C175.588 185.082 175.042 184.476 174.634 183.696C174.238 182.904 174.04 181.998 174.04 180.978ZM181.888 181.014C181.888 180.402 181.768 179.88 181.528 179.448C181.288 179.004 180.964 178.668 180.556 178.44C180.148 178.2 179.71 178.08 179.242 178.08C178.774 178.08 178.342 178.194 177.946 178.422C177.55 178.65 177.226 178.986 176.974 179.43C176.734 179.862 176.614 180.378 176.614 180.978C176.614 181.578 176.734 182.106 176.974 182.562C177.226 183.006 177.55 183.348 177.946 183.588C178.354 183.828 178.786 183.948 179.242 183.948C179.71 183.948 180.148 183.834 180.556 183.606C180.964 183.366 181.288 183.03 181.528 182.598C181.768 182.154 181.888 181.626 181.888 181.014ZM193.697 177.468C194.021 177.012 194.465 176.634 195.029 176.334C195.605 176.022 196.259 175.866 196.991 175.866C197.843 175.866 198.611 176.076 199.295 176.496C199.991 176.916 200.537 177.516 200.933 178.296C201.341 179.064 201.545 179.958 201.545 180.978C201.545 181.998 201.341 182.904 200.933 183.696C200.537 184.476 199.991 185.082 199.295 185.514C198.611 185.946 197.843 186.162 196.991 186.162C196.259 186.162 195.611 186.012 195.047 185.712C194.495 185.412 194.045 185.034 193.697 184.578V190.752H191.177V176.028H193.697V177.468ZM198.971 180.978C198.971 180.378 198.845 179.862 198.593 179.43C198.353 178.986 198.029 178.65 197.621 178.422C197.225 178.194 196.793 178.08 196.325 178.08C195.869 178.08 195.437 178.2 195.029 178.44C194.633 178.668 194.309 179.004 194.057 179.448C193.817 179.892 193.697 180.414 193.697 181.014C193.697 181.614 193.817 182.136 194.057 182.58C194.309 183.024 194.633 183.366 195.029 183.606C195.437 183.834 195.869 183.948 196.325 183.948C196.793 183.948 197.225 183.828 197.621 183.588C198.029 183.348 198.353 183.006 198.593 182.562C198.845 182.118 198.971 181.59 198.971 180.978ZM207.804 186.162C206.844 186.162 205.98 185.952 205.212 185.532C204.444 185.1 203.838 184.494 203.394 183.714C202.962 182.934 202.746 182.034 202.746 181.014C202.746 179.994 202.968 179.094 203.412 178.314C203.868 177.534 204.486 176.934 205.266 176.514C206.046 176.082 206.916 175.866 207.876 175.866C208.836 175.866 209.706 176.082 210.486 176.514C211.266 176.934 211.878 177.534 212.322 178.314C212.778 179.094 213.006 179.994 213.006 181.014C213.006 182.034 212.772 182.934 212.304 183.714C211.848 184.494 211.224 185.1 210.432 185.532C209.652 185.952 208.776 186.162 207.804 186.162ZM207.804 183.966C208.26 183.966 208.686 183.858 209.082 183.642C209.49 183.414 209.814 183.078 210.054 182.634C210.294 182.19 210.414 181.65 210.414 181.014C210.414 180.066 210.162 179.34 209.658 178.836C209.166 178.32 208.56 178.062 207.84 178.062C207.12 178.062 206.514 178.32 206.022 178.836C205.542 179.34 205.302 180.066 205.302 181.014C205.302 181.962 205.536 182.694 206.004 183.21C206.484 183.714 207.084 183.966 207.804 183.966ZM217.374 177.576C217.698 177.048 218.118 176.634 218.634 176.334C219.162 176.034 219.762 175.884 220.434 175.884V178.53H219.768C218.976 178.53 218.376 178.716 217.968 179.088C217.572 179.46 217.374 180.108 217.374 181.032V186H214.854V176.028H217.374V177.576ZM225.773 180.978C225.773 179.97 225.971 179.076 226.367 178.296C226.775 177.516 227.321 176.916 228.005 176.496C228.701 176.076 229.475 175.866 230.327 175.866C231.071 175.866 231.719 176.016 232.271 176.316C232.835 176.616 233.285 176.994 233.621 177.45V176.028H236.159V186H233.621V184.542C233.297 185.01 232.847 185.4 232.271 185.712C231.707 186.012 231.053 186.162 230.309 186.162C229.469 186.162 228.701 185.946 228.005 185.514C227.321 185.082 226.775 184.476 226.367 183.696C225.971 182.904 225.773 181.998 225.773 180.978ZM233.621 181.014C233.621 180.402 233.501 179.88 233.261 179.448C233.021 179.004 232.697 178.668 232.289 178.44C231.881 178.2 231.443 178.08 230.975 178.08C230.507 178.08 230.075 178.194 229.679 178.422C229.283 178.65 228.959 178.986 228.707 179.43C228.467 179.862 228.347 180.378 228.347 180.978C228.347 181.578 228.467 182.106 228.707 182.562C228.959 183.006 229.283 183.348 229.679 183.588C230.087 183.828 230.519 183.948 230.975 183.948C231.443 183.948 231.881 183.834 232.289 183.606C232.697 183.366 233.021 183.03 233.261 182.598C233.501 182.154 233.621 181.626 233.621 181.014ZM237.972 180.996C237.972 180 238.176 179.118 238.584 178.35C239.004 177.57 239.568 176.964 240.276 176.532C240.984 176.1 241.764 175.884 242.616 175.884C243.324 175.884 243.948 176.022 244.488 176.298C245.04 176.562 245.484 176.904 245.82 177.324V176.028H248.358V190.752H245.82V184.632C245.484 185.064 245.034 185.424 244.47 185.712C243.906 186 243.27 186.144 242.562 186.144C241.722 186.144 240.948 185.928 240.24 185.496C239.544 185.052 238.992 184.44 238.584 183.66C238.176 182.88 237.972 181.992 237.972 180.996ZM245.82 181.014C245.82 180.402 245.694 179.874 245.442 179.43C245.19 178.986 244.86 178.65 244.452 178.422C244.056 178.194 243.63 178.08 243.174 178.08C242.73 178.08 242.304 178.194 241.896 178.422C241.5 178.65 241.176 178.986 240.924 179.43C240.672 179.862 240.546 180.384 240.546 180.996C240.546 181.608 240.672 182.142 240.924 182.598C241.176 183.042 241.5 183.378 241.896 183.606C242.304 183.834 242.73 183.948 243.174 183.948C243.63 183.948 244.056 183.834 244.452 183.606C244.86 183.378 245.19 183.042 245.442 182.598C245.694 182.154 245.82 181.626 245.82 181.014ZM260.233 176.028V186H257.695V184.74C257.371 185.172 256.945 185.514 256.417 185.766C255.901 186.006 255.337 186.126 254.725 186.126C253.945 186.126 253.255 185.964 252.655 185.64C252.055 185.304 251.581 184.818 251.233 184.182C250.897 183.534 250.729 182.766 250.729 181.878V176.028H253.249V181.518C253.249 182.31 253.447 182.922 253.843 183.354C254.239 183.774 254.779 183.984 255.463 183.984C256.159 183.984 256.705 183.774 257.101 183.354C257.497 182.922 257.695 182.31 257.695 181.518V176.028H260.233ZM263.998 174.84C263.554 174.84 263.182 174.702 262.882 174.426C262.594 174.138 262.45 173.784 262.45 173.364C262.45 172.944 262.594 172.596 262.882 172.32C263.182 172.032 263.554 171.888 263.998 171.888C264.442 171.888 264.808 172.032 265.096 172.32C265.396 172.596 265.546 172.944 265.546 173.364C265.546 173.784 265.396 174.138 265.096 174.426C264.808 174.702 264.442 174.84 263.998 174.84ZM265.24 176.028V186H262.72V176.028H265.24ZM268.845 186.126C268.389 186.126 268.011 185.988 267.711 185.712C267.423 185.424 267.279 185.07 267.279 184.65C267.279 184.23 267.423 183.882 267.711 183.606C268.011 183.318 268.389 183.174 268.845 183.174C269.289 183.174 269.655 183.318 269.943 183.606C270.231 183.882 270.375 184.23 270.375 184.65C270.375 185.07 270.231 185.424 269.943 185.712C269.655 185.988 269.289 186.126 268.845 186.126ZM273.521 186.126C273.065 186.126 272.687 185.988 272.387 185.712C272.099 185.424 271.955 185.07 271.955 184.65C271.955 184.23 272.099 183.882 272.387 183.606C272.687 183.318 273.065 183.174 273.521 183.174C273.965 183.174 274.331 183.318 274.619 183.606C274.907 183.882 275.051 184.23 275.051 184.65C275.051 185.07 274.907 185.424 274.619 185.712C274.331 185.988 273.965 186.126 273.521 186.126ZM278.197 186.126C277.741 186.126 277.363 185.988 277.063 185.712C276.775 185.424 276.631 185.07 276.631 184.65C276.631 184.23 276.775 183.882 277.063 183.606C277.363 183.318 277.741 183.174 278.197 183.174C278.641 183.174 279.007 183.318 279.295 183.606C279.583 183.882 279.727 184.23 279.727 184.65C279.727 185.07 279.583 185.424 279.295 185.712C279.007 185.988 278.641 186.126 278.197 186.126Z" fill="#F8F8F8"/>
<circle opacity="0.1" cx="140" cy="75.0001" r="75" fill="#835AFD"/>
<path d="M74 29.7231V62.7837V65.1452C74 67.7536 76.1145 69.8681 78.7229 69.8681H109.422L122.036 81.512C122.883 82.2935 124.233 81.5236 123.992 80.397L121.229 67.5066H129.495C132.103 67.5066 134.218 65.3921 134.218 62.7837V29.7231C134.218 27.1147 132.103 25.0001 129.495 25.0001H78.7229C76.1145 25.0001 74 27.1147 74 29.7231Z" fill="url(#paint0_linear)"/>
<path d="M218.218 54.7231V87.7837V90.1452C218.218 92.7536 216.103 94.8681 213.495 94.8681H182.795L170.181 106.512C169.335 107.294 167.984 106.524 168.226 105.397L170.988 92.5066H162.723C160.115 92.5066 158 90.3921 158 87.7837V54.7231C158 52.1147 160.115 50.0001 162.723 50.0001H213.495C216.103 50.0001 218.218 52.1147 218.218 54.7231Z" fill="url(#paint1_linear)"/>
<circle cx="174.5" cy="71.5001" r="3.5" fill="#F8F8F8"/>
<circle cx="187.5" cy="71.5001" r="3.5" fill="#F8F8F8"/>
<circle cx="200.5" cy="71.5001" r="3.5" fill="#F8F8F8"/>
<path d="M110 100.41V117.281V118.486C110 119.817 111.089 120.896 112.431 120.896H128.235L134.729 126.838C135.165 127.237 135.86 126.844 135.736 126.269L134.314 119.691H138.569C139.911 119.691 141 118.612 141 117.281V100.41C141 99.0792 139.911 98.0001 138.569 98.0001H112.431C111.089 98.0001 110 99.0792 110 100.41Z" fill="#D67EE2"/>
<circle cx="90.5" cy="46.5001" r="3.5" fill="#F8F8F8"/>
<circle cx="103.5" cy="46.5001" r="3.5" fill="#F8F8F8"/>
<circle cx="116.5" cy="46.5001" r="3.5" fill="#F8F8F8"/>
<circle opacity="0.7" cx="118.015" cy="109.334" r="2.01515" fill="#F8F8F8"/>
<circle opacity="0.7" cx="125.5" cy="109.334" r="2.01515" fill="#F8F8F8"/>
<circle opacity="0.7" cx="132.985" cy="109.334" r="2.01515" fill="#F8F8F8"/>
<defs>
<linearGradient id="paint0_linear" x1="104.109" y1="25.0001" x2="104.109" y2="81.8298" gradientUnits="userSpaceOnUse">
<stop stop-color="#9A78FF"/>
<stop offset="1" stop-color="#835AFD"/>
</linearGradient>
<linearGradient id="paint1_linear" x1="188.109" y1="50.0001" x2="188.109" y2="106.83" gradientUnits="userSpaceOnUse">
<stop stop-color="#EF7EFF"/>
<stop offset="1" stop-color="#E554FA"/>
</linearGradient>
</defs>
</svg>
